# Blender 4.5.3 LTS
# www.blender.org
mtllib Slime.mtl
o Icosphere
v 0.000000 0.000324 0.000000
v 0.361804 0.165594 0.262863
v -0.138194 0.165594 0.425325
v -0.447213 0.165595 0.000000
v -0.138194 0.165594 -0.425325
v 0.361804 0.165594 -0.262863
v 0.138194 0.532260 0.425325
v -0.361804 0.532260 0.262863
v -0.361804 0.532260 -0.262863
v 0.138194 0.532260 -0.425325
v 0.447213 0.532259 0.000000
v 0.000000 0.758867 0.000000
v -0.081228 0.000324 0.249998
v 0.212661 0.000324 0.154506
v 0.131434 0.133406 0.404506
v 0.425324 0.133407 0.000000
v 0.212661 0.000324 -0.154506
v -0.262865 0.000324 0.000000
v -0.344095 0.133407 0.249998
v -0.081228 0.000324 -0.249998
v -0.344095 0.133407 -0.249998
v 0.131434 0.133406 -0.404506
v 0.475529 0.348927 0.154506
v 0.475529 0.348927 -0.154506
v 0.000000 0.348927 0.500000
v 0.293893 0.348927 0.404508
v -0.475529 0.348927 0.154506
v -0.293893 0.348927 0.404508
v -0.293893 0.348927 -0.404508
v -0.475529 0.348927 -0.154506
v 0.293893 0.348927 -0.404508
v 0.000000 0.348927 -0.500000
v 0.344095 0.564447 0.249998
v -0.131434 0.564448 0.404506
v -0.425324 0.564447 0.000000
v -0.131434 0.564448 -0.404506
v 0.344095 0.564447 -0.249998
v 0.081228 0.697644 0.249998
v 0.262865 0.697643 0.000000
v -0.212661 0.697644 0.154506
v -0.212661 0.697644 -0.154506
v 0.081228 0.697644 -0.249998
vn -0.0000 -1.0000 -0.0000
vn 0.6354 -0.7329 0.2433
vn 0.8818 -0.3927 0.2612
vn 0.0241 -0.3927 0.9194
vn -0.8669 -0.3927 0.3070
vn -0.5599 -0.3927 -0.7296
vn 0.5209 -0.3927 -0.7580
vn 0.7995 -0.1526 0.5809
vn -0.3054 -0.1526 0.9399
vn -0.9883 -0.1526 -0.0000
vn -0.3054 -0.1526 -0.9399
vn 0.7995 -0.1526 -0.5809
vn 0.3712 0.7326 0.5705
vn -0.4278 0.7326 0.5293
vn -0.6356 0.7326 -0.2433
vn 0.0350 0.7326 -0.6797
vn 0.6573 0.7326 -0.1768
vn 0.2238 0.9610 -0.1626
vn 0.4294 0.8475 -0.3120
vn 0.3712 0.7326 -0.5705
vn -0.0855 0.9610 -0.2631
vn -0.1640 0.8475 -0.5048
vn -0.4278 0.7326 -0.5293
vn -0.2767 0.9610 -0.0000
vn -0.5308 0.8475 -0.0000
vn -0.6356 0.7326 0.2433
vn -0.0855 0.9610 0.2631
vn -0.1640 0.8475 0.5048
vn 0.0350 0.7326 0.6797
vn 0.2238 0.9610 0.1626
vn 0.4294 0.8475 0.3120
vn 0.6573 0.7326 0.1768
vn 0.8669 0.3927 -0.3070
vn 0.7879 0.2269 -0.5725
vn 0.5599 0.3927 -0.7296
vn -0.0241 0.3927 -0.9194
vn -0.3010 0.2269 -0.9263
vn -0.5209 0.3927 -0.7580
vn -0.8818 0.3927 -0.2612
vn -0.9739 0.2269 -0.0000
vn -0.8818 0.3927 0.2612
vn -0.5209 0.3927 0.7580
vn -0.3010 0.2269 0.9263
vn -0.0241 0.3927 0.9194
vn 0.5599 0.3927 0.7296
vn 0.7879 0.2269 0.5725
vn 0.8669 0.3927 0.3070
vn 0.3054 0.1526 -0.9399
vn 0.3010 -0.2269 -0.9263
vn 0.0241 -0.3927 -0.9194
vn -0.7995 0.1526 -0.5809
vn -0.7879 -0.2269 -0.5725
vn -0.8669 -0.3927 -0.3070
vn -0.7995 0.1526 0.5809
vn -0.7879 -0.2269 0.5725
vn -0.5599 -0.3927 0.7296
vn 0.3054 0.1526 0.9399
vn 0.3010 -0.2269 0.9263
vn 0.5209 -0.3927 0.7580
vn 0.9883 0.1526 -0.0000
vn 0.9739 -0.2269 -0.0000
vn 0.8818 -0.3927 -0.2612
vn 0.4277 -0.7329 -0.5291
vn 0.1639 -0.8477 -0.5045
vn -0.0350 -0.7329 -0.6795
vn -0.3710 -0.7329 -0.5703
vn -0.4292 -0.8477 -0.3118
vn -0.6570 -0.7329 -0.1766
vn -0.6570 -0.7329 0.1766
vn -0.4292 -0.8477 0.3118
vn -0.3710 -0.7329 0.5703
vn 0.6354 -0.7329 -0.2433
vn 0.5305 -0.8477 -0.0000
vn -0.0350 -0.7329 0.6795
vn 0.1639 -0.8477 0.5045
vn 0.4277 -0.7329 0.5291
vt 0.181819 0.000000
vt 0.227273 0.078731
vt 0.136365 0.078731
vt 0.272728 0.157461
vt 0.318182 0.078731
vt 0.363637 0.157461
vt 0.909091 0.000000
vt 0.954545 0.078731
vt 0.863636 0.078731
vt 0.727273 0.000000
vt 0.772727 0.078731
vt 0.681818 0.078731
vt 0.545455 0.000000
vt 0.590909 0.078731
vt 0.500000 0.078731
vt 0.318182 0.236191
vt 0.090910 0.157461
vt 0.181819 0.157461
vt 0.136365 0.236191
vt 0.818182 0.157461
vt 0.909091 0.157461
vt 0.863636 0.236191
vt 0.636364 0.157461
vt 0.727273 0.157461
vt 0.681818 0.236191
vt 0.454546 0.157461
vt 0.545455 0.157461
vt 0.500000 0.236191
vt 0.227273 0.236191
vt 0.045455 0.236191
vt 0.772727 0.236191
vt 0.590909 0.236191
vt 0.409092 0.236191
vt 0.181819 0.314921
vt 0.272728 0.314921
vt 0.227273 0.393651
vt 0.000000 0.314921
vt 0.090910 0.314921
vt 0.045455 0.393651
vt 0.727273 0.314921
vt 0.818182 0.314921
vt 0.772727 0.393651
vt 0.545455 0.314921
vt 0.636364 0.314921
vt 0.590909 0.393651
vt 0.363637 0.314921
vt 0.454546 0.314921
vt 0.409092 0.393651
vt 0.500000 0.393651
vt 0.454546 0.472382
vt 0.681818 0.393651
vt 0.636364 0.472382
vt 0.863636 0.393651
vt 0.818182 0.472382
vt 0.909091 0.314921
vt 0.136365 0.393651
vt 0.090910 0.472382
vt 0.318182 0.393651
vt 0.272728 0.472382
vt 0.954545 0.236191
vt 1.000000 0.157461
vt 0.409092 0.078731
vt 0.363637 0.000000
s 0
f 1/1/1 14/2/1 13/3/1
f 2/4/2 14/5/2 16/6/2
f 1/7/1 13/8/1 18/9/1
f 1/10/1 18/11/1 20/12/1
f 1/13/1 20/14/1 17/15/1
f 2/4/3 16/6/3 23/16/3
f 3/17/4 15/18/4 25/19/4
f 4/20/5 19/21/5 27/22/5
f 5/23/6 21/24/6 29/25/6
f 6/26/7 22/27/7 31/28/7
f 2/4/8 23/16/8 26/29/8
f 3/17/9 25/19/9 28/30/9
f 4/20/10 27/22/10 30/31/10
f 5/23/11 29/25/11 32/32/11
f 6/26/12 31/28/12 24/33/12
f 7/34/13 33/35/13 38/36/13
f 8/37/14 34/38/14 40/39/14
f 9/40/15 35/41/15 41/42/15
f 10/43/16 36/44/16 42/45/16
f 11/46/17 37/47/17 39/48/17
f 39/48/18 42/49/18 12/50/18
f 39/48/19 37/47/19 42/49/19
f 37/47/20 10/43/20 42/49/20
f 42/45/21 41/51/21 12/52/21
f 42/45/22 36/44/22 41/51/22
f 36/44/23 9/40/23 41/51/23
f 41/42/24 40/53/24 12/54/24
f 41/42/25 35/41/25 40/53/25
f 35/41/26 8/55/26 40/53/26
f 40/39/27 38/56/27 12/57/27
f 40/39/28 34/38/28 38/56/28
f 34/38/29 7/34/29 38/56/29
f 38/36/30 39/58/30 12/59/30
f 38/36/31 33/35/31 39/58/31
f 33/35/32 11/46/32 39/58/32
f 24/33/33 37/47/33 11/46/33
f 24/33/34 31/28/34 37/47/34
f 31/28/35 10/43/35 37/47/35
f 32/32/36 36/44/36 10/43/36
f 32/32/37 29/25/37 36/44/37
f 29/25/38 9/40/38 36/44/38
f 30/31/39 35/41/39 9/40/39
f 30/31/40 27/22/40 35/41/40
f 27/22/41 8/55/41 35/41/41
f 28/30/42 34/38/42 8/37/42
f 28/30/43 25/19/43 34/38/43
f 25/19/44 7/34/44 34/38/44
f 26/29/45 33/35/45 7/34/45
f 26/29/46 23/16/46 33/35/46
f 23/16/47 11/46/47 33/35/47
f 31/28/48 32/32/48 10/43/48
f 31/28/49 22/27/49 32/32/49
f 22/27/50 5/23/50 32/32/50
f 29/25/51 30/31/51 9/40/51
f 29/25/52 21/24/52 30/31/52
f 21/24/53 4/20/53 30/31/53
f 27/22/54 28/60/54 8/55/54
f 27/22/55 19/21/55 28/60/55
f 19/21/56 3/61/56 28/60/56
f 25/19/57 26/29/57 7/34/57
f 25/19/58 15/18/58 26/29/58
f 15/18/59 2/4/59 26/29/59
f 23/16/60 24/33/60 11/46/60
f 23/16/61 16/6/61 24/33/61
f 16/6/62 6/26/62 24/33/62
f 17/15/63 22/27/63 6/26/63
f 17/15/64 20/14/64 22/27/64
f 20/14/65 5/23/65 22/27/65
f 20/12/66 21/24/66 5/23/66
f 20/12/67 18/11/67 21/24/67
f 18/11/68 4/20/68 21/24/68
f 18/9/69 19/21/69 4/20/69
f 18/9/70 13/8/70 19/21/70
f 13/8/71 3/61/71 19/21/71
f 16/6/72 17/62/72 6/26/72
f 16/6/73 14/5/73 17/62/73
f 14/5/1 1/63/1 17/62/1
f 13/3/74 15/18/74 3/17/74
f 13/3/75 14/2/75 15/18/75
f 14/2/76 2/4/76 15/18/76
