{
	"asset":{
		"generator":"Khronos glTF Blender I/O v4.5.48",
		"version":"2.0"
	},
	"scene":0,
	"scenes":[
		{
			"name":"Scene",
			"nodes":[
				0
			]
		}
	],
	"nodes":[
		{
			"mesh":0,
			"name":"Column_B",
			"rotation":[
				0,
				-0.7071068286895752,
				0,
				0.7071067094802856
			]
		}
	],
	"materials":[
		{
			"doubleSided":true,
			"name":"Column",
			"pbrMetallicRoughness":{
				"baseColorTexture":{
					"index":0
				},
				"metallicFactor":0,
				"roughnessFactor":0.5
			}
		}
	],
	"meshes":[
		{
			"name":"Cube.009",
			"primitives":[
				{
					"attributes":{
						"POSITION":0,
						"NORMAL":1,
						"TEXCOORD_0":2
					},
					"indices":3,
					"material":0
				}
			]
		}
	],
	"textures":[
		{
			"sampler":0,
			"source":0
		}
	],
	"images":[
		{
			"mimeType":"image/png",
			"name":"Column_SL",
			"uri":"Column_SL.png"
		}
	],
	"accessors":[
		{
			"bufferView":0,
			"componentType":5126,
			"count":206,
			"max":[
				1,
				-2.842790126800537,
				1
			],
			"min":[
				-1,
				-3.75,
				-1
			],
			"type":"VEC3"
		},
		{
			"bufferView":1,
			"componentType":5126,
			"count":206,
			"type":"VEC3"
		},
		{
			"bufferView":2,
			"componentType":5126,
			"count":206,
			"type":"VEC2"
		},
		{
			"bufferView":3,
			"componentType":5123,
			"count":414,
			"type":"SCALAR"
		}
	],
	"bufferViews":[
		{
			"buffer":0,
			"byteLength":2472,
			"byteOffset":0,
			"target":34962
		},
		{
			"buffer":0,
			"byteLength":2472,
			"byteOffset":2472,
			"target":34962
		},
		{
			"buffer":0,
			"byteLength":1648,
			"byteOffset":4944,
			"target":34962
		},
		{
			"buffer":0,
			"byteLength":828,
			"byteOffset":6592,
			"target":34963
		}
	],
	"samplers":[
		{
			"magFilter":9729,
			"minFilter":9987
		}
	],
	"buffers":[
		{
			"byteLength":7420,
			"uri":"Column_B.bin"
		}
	]
}
