{
	"asset":{
		"generator":"Khronos glTF Blender I/O v4.5.48",
		"version":"2.0"
	},
	"scene":0,
	"scenes":[
		{
			"extras":{
				"zen_display":{
					"stacked":false,
					"finished":false,
					"stretch":false
				},
				"bc":{
					"snap":{
						"hit":false
					}
				},
				"keentools_fb_settings":{},
				"uuid":"54bb0580-6b98-4f4d-9b6d-7860c7b05ea8",
				"assets reported":{},
				"vs":{
					"export_list":[
						{
							"name":"boolean_cutters.dmx",
							"collection":{
								"name":"boolean_cutters",
								"type":"Collection"
							},
							"ob_type":"COLLECTION",
							"icon":"GROUP"
						},
						{
							"name":"Column-rigid.dmx",
							"collection":{
								"name":"Column-rigid",
								"type":"Collection"
							},
							"ob_type":"COLLECTION",
							"icon":"GROUP"
						},
						{
							"name":"Column-solid.dmx",
							"collection":{
								"name":"Column-solid",
								"type":"Collection"
							},
							"ob_type":"COLLECTION",
							"icon":"GROUP"
						},
						{
							"name":"Work.dmx",
							"collection":{
								"name":"Work",
								"type":"Collection"
							},
							"ob_type":"COLLECTION",
							"icon":"GROUP"
						}
					]
				},
				"qremesher":{},
				"GodotPipelineProps":{
					"mesh_data":0,
					"collision_UI":1,
					"col_types":5,
					"body_types":1,
					"discard_mesh":0,
					"export_UI":1,
					"save_path":"D:\\Godot_game\\Projects\\awesome-godot-test-project\\assets\\Environment\\active_objects\\Column\\Column_Shell\\Column_BB.gltf",
					"counter":19,
					"display_wire":0,
					"global_UI":0
				}
			},
			"name":"Scene",
			"nodes":[
				0,
				1,
				2,
				3,
				4,
				5,
				6,
				7,
				8,
				9
			]
		}
	],
	"nodes":[
		{
			"extras":{
				"booleans":{
					"canvas":1
				},
				"collision":"simple-r"
			},
			"mesh":0,
			"name":"Column_BB",
			"translation":[
				-0.15265494585037231,
				-3.298830270767212,
				0.9327107667922974
			]
		},
		{
			"extras":{
				"collision":"simple-r"
			},
			"mesh":1,
			"name":"Column_BB.001",
			"translation":[
				0.5362113118171692,
				-3.0402698516845703,
				-0.900713324546814
			]
		},
		{
			"extras":{
				"collision":"simple-r"
			},
			"mesh":2,
			"name":"Column_BB.002",
			"translation":[
				-0.9202308058738708,
				-3.3908255100250244,
				0.23793599009513855
			]
		},
		{
			"extras":{
				"collision":"simple-r"
			},
			"mesh":3,
			"name":"Column_BB.004",
			"translation":[
				0.9346370697021484,
				-2.999410390853882,
				-0.3087143003940582
			]
		},
		{
			"extras":{
				"booleans":{
					"canvas":1
				},
				"collision":"simple-r"
			},
			"mesh":4,
			"name":"Column_BB.005",
			"translation":[
				-0.9096454381942749,
				-3.0758297443389893,
				0.8185350298881531
			]
		},
		{
			"extras":{
				"booleans":{
					"canvas":1
				},
				"collision":"simple-r"
			},
			"mesh":5,
			"name":"Column_BB.006",
			"translation":[
				0.9321473240852356,
				-2.927875518798828,
				0.5040539503097534
			]
		},
		{
			"extras":{
				"collision":"simple-r"
			},
			"mesh":6,
			"name":"Column_BB.007",
			"translation":[
				0.9344395995140076,
				-2.9874672889709473,
				-0.8127177953720093
			]
		},
		{
			"extras":{
				"collision":"simple-r"
			},
			"mesh":7,
			"name":"Column_BB.008",
			"translation":[
				-0.548414409160614,
				-3.2723946571350098,
				-0.9279373288154602
			]
		},
		{
			"extras":{
				"collision":"simple-r"
			},
			"mesh":8,
			"name":"Column_BB.009",
			"translation":[
				-0.8049792051315308,
				-3.723332166671753,
				0.9080686569213867
			]
		},
		{
			"extras":{
				"booleans":{
					"canvas":1
				},
				"collision":"simple-r"
			},
			"mesh":9,
			"name":"Column_BB.010",
			"translation":[
				0.696406900882721,
				-3.3576173782348633,
				0.8950625061988831
			]
		}
	],
	"materials":[
		{
			"doubleSided":true,
			"name":"Column",
			"pbrMetallicRoughness":{
				"baseColorTexture":{
					"index":0
				},
				"metallicFactor":0,
				"roughnessFactor":0.5
			}
		}
	],
	"meshes":[
		{
			"name":"Column_B_cell.005",
			"primitives":[
				{
					"attributes":{
						"POSITION":0,
						"NORMAL":1,
						"TEXCOORD_0":2
					},
					"indices":3,
					"material":0
				}
			]
		},
		{
			"name":"Column_B_cell.001",
			"primitives":[
				{
					"attributes":{
						"POSITION":4,
						"NORMAL":5,
						"TEXCOORD_0":6
					},
					"indices":7,
					"material":0
				}
			]
		},
		{
			"name":"Column_B_cell.002",
			"primitives":[
				{
					"attributes":{
						"POSITION":8,
						"NORMAL":9,
						"TEXCOORD_0":10
					},
					"indices":11,
					"material":0
				}
			]
		},
		{
			"name":"Column_B_cell.004",
			"primitives":[
				{
					"attributes":{
						"POSITION":12,
						"NORMAL":13,
						"TEXCOORD_0":14
					},
					"indices":15,
					"material":0
				}
			]
		},
		{
			"name":"Column_B_cell.006",
			"primitives":[
				{
					"attributes":{
						"POSITION":16,
						"NORMAL":17,
						"TEXCOORD_0":18
					},
					"indices":19,
					"material":0
				}
			]
		},
		{
			"name":"Column_B_cell.007",
			"primitives":[
				{
					"attributes":{
						"POSITION":20,
						"NORMAL":21,
						"TEXCOORD_0":22
					},
					"indices":23,
					"material":0
				}
			]
		},
		{
			"name":"Column_B_cell.008",
			"primitives":[
				{
					"attributes":{
						"POSITION":24,
						"NORMAL":25,
						"TEXCOORD_0":26
					},
					"indices":27,
					"material":0
				}
			]
		},
		{
			"name":"Column_B_cell.009",
			"primitives":[
				{
					"attributes":{
						"POSITION":28,
						"NORMAL":29,
						"TEXCOORD_0":30
					},
					"indices":31,
					"material":0
				}
			]
		},
		{
			"name":"Column_B_cell.010",
			"primitives":[
				{
					"attributes":{
						"POSITION":32,
						"NORMAL":33,
						"TEXCOORD_0":34
					},
					"indices":35,
					"material":0
				}
			]
		},
		{
			"name":"Column_B_cell.011",
			"primitives":[
				{
					"attributes":{
						"POSITION":36,
						"NORMAL":37,
						"TEXCOORD_0":38
					},
					"indices":39,
					"material":0
				}
			]
		}
	],
	"textures":[
		{
			"sampler":0,
			"source":0
		}
	],
	"images":[
		{
			"mimeType":"image/png",
			"name":"Column_SL",
			"uri":"Column_SL.png"
		}
	],
	"accessors":[
		{
			"bufferView":0,
			"componentType":5126,
			"count":141,
			"max":[
				1.0758775472640991,
				0.45604047179222107,
				0.06728830933570862
			],
			"min":[
				-0.714897871017456,
				-0.4511696696281433,
				-0.07204985618591309
			],
			"type":"VEC3"
		},
		{
			"bufferView":1,
			"componentType":5126,
			"count":141,
			"type":"VEC3"
		},
		{
			"bufferView":2,
			"componentType":5126,
			"count":141,
			"type":"VEC2"
		},
		{
			"bufferView":3,
			"componentType":5123,
			"count":240,
			"type":"SCALAR"
		},
		{
			"bufferView":4,
			"componentType":5126,
			"count":124,
			"max":[
				0.41860008239746094,
				0.19747991859912872,
				0.11949414759874344
			],
			"min":[
				-0.7320259809494019,
				-0.40996819734573364,
				-0.09928672760725021
			],
			"type":"VEC3"
		},
		{
			"bufferView":5,
			"componentType":5126,
			"count":124,
			"type":"VEC3"
		},
		{
			"bufferView":6,
			"componentType":5126,
			"count":124,
			"type":"VEC2"
		},
		{
			"bufferView":7,
			"componentType":5123,
			"count":210,
			"type":"SCALAR"
		},
		{
			"bufferView":8,
			"componentType":5126,
			"count":134,
			"max":[
				0.1342378705739975,
				0.5480353236198425,
				0.7166638374328613
			],
			"min":[
				-0.07976919412612915,
				-0.3591744601726532,
				-1.1505104303359985
			],
			"type":"VEC3"
		},
		{
			"bufferView":9,
			"componentType":5126,
			"count":134,
			"type":"VEC3"
		},
		{
			"bufferView":10,
			"componentType":5126,
			"count":134,
			"type":"VEC2"
		},
		{
			"bufferView":11,
			"componentType":5123,
			"count":228,
			"type":"SCALAR"
		},
		{
			"bufferView":12,
			"componentType":5126,
			"count":106,
			"max":[
				0.06536293029785156,
				0.1566205471754074,
				0.453767329454422
			],
			"min":[
				-0.07463735342025757,
				-0.32665181159973145,
				-0.47281792759895325
			],
			"type":"VEC3"
		},
		{
			"bufferView":13,
			"componentType":5126,
			"count":106,
			"type":"VEC3"
		},
		{
			"bufferView":14,
			"componentType":5126,
			"count":106,
			"type":"VEC2"
		},
		{
			"bufferView":15,
			"componentType":5123,
			"count":168,
			"type":"SCALAR"
		},
		{
			"bufferView":16,
			"componentType":5126,
			"count":86,
			"max":[
				0.12365233898162842,
				0.2330399453639984,
				0.1362757682800293
			],
			"min":[
				-0.09035462141036987,
				-0.5559155941009521,
				-0.27706801891326904
			],
			"type":"VEC3"
		},
		{
			"bufferView":17,
			"componentType":5126,
			"count":86,
			"type":"VEC3"
		},
		{
			"bufferView":18,
			"componentType":5126,
			"count":86,
			"type":"VEC2"
		},
		{
			"bufferView":19,
			"componentType":5123,
			"count":144,
			"type":"SCALAR"
		},
		{
			"bufferView":20,
			"componentType":5126,
			"count":92,
			"max":[
				0.06785273551940918,
				0.08508554100990295,
				0.4107655882835388
			],
			"min":[
				-0.07214760780334473,
				-0.20882058143615723,
				-0.3737553358078003
			],
			"type":"VEC3"
		},
		{
			"bufferView":21,
			"componentType":5126,
			"count":92,
			"type":"VEC3"
		},
		{
			"bufferView":22,
			"componentType":5126,
			"count":92,
			"type":"VEC2"
		},
		{
			"bufferView":23,
			"componentType":5123,
			"count":150,
			"type":"SCALAR"
		},
		{
			"bufferView":24,
			"componentType":5126,
			"count":68,
			"max":[
				0.04936462640762329,
				0.1446772813796997,
				0.04941978678107262
			],
			"min":[
				-0.0744398832321167,
				-0.16386690735816956,
				-0.054835524410009384
			],
			"type":"VEC3"
		},
		{
			"bufferView":25,
			"componentType":5126,
			"count":68,
			"type":"VEC3"
		},
		{
			"bufferView":26,
			"componentType":5126,
			"count":68,
			"type":"VEC2"
		},
		{
			"bufferView":27,
			"componentType":5123,
			"count":108,
			"type":"SCALAR"
		},
		{
			"bufferView":28,
			"componentType":5126,
			"count":116,
			"max":[
				0.6110760569572449,
				0.42960435152053833,
				0.09655284881591797
			],
			"min":[
				-0.37632015347480774,
				-0.47760528326034546,
				-0.07206273078918457
			],
			"type":"VEC3"
		},
		{
			"bufferView":29,
			"componentType":5126,
			"count":116,
			"type":"VEC3"
		},
		{
			"bufferView":30,
			"componentType":5126,
			"count":116,
			"type":"VEC2"
		},
		{
			"bufferView":31,
			"componentType":5123,
			"count":192,
			"type":"SCALAR"
		},
		{
			"bufferView":32,
			"componentType":5126,
			"count":42,
			"max":[
				0.06805066764354706,
				0.06951859593391418,
				0.04517054557800293
			],
			"min":[
				-0.05533745884895325,
				-0.026667892932891846,
				-0.043295085430145264
			],
			"type":"VEC3"
		},
		{
			"bufferView":33,
			"componentType":5126,
			"count":42,
			"type":"VEC3"
		},
		{
			"bufferView":34,
			"componentType":5126,
			"count":42,
			"type":"VEC2"
		},
		{
			"bufferView":35,
			"componentType":5123,
			"count":66,
			"type":"SCALAR"
		},
		{
			"bufferView":36,
			"componentType":5126,
			"count":34,
			"max":[
				0.20446735620498657,
				0.22264818847179413,
				0.07456852495670319
			],
			"min":[
				-1.341727614402771,
				-0.3501925468444824,
				-0.06686341762542725
			],
			"type":"VEC3"
		},
		{
			"bufferView":37,
			"componentType":5126,
			"count":34,
			"type":"VEC3"
		},
		{
			"bufferView":38,
			"componentType":5126,
			"count":34,
			"type":"VEC2"
		},
		{
			"bufferView":39,
			"componentType":5123,
			"count":54,
			"type":"SCALAR"
		}
	],
	"bufferViews":[
		{
			"buffer":0,
			"byteLength":1692,
			"byteOffset":0,
			"target":34962
		},
		{
			"buffer":0,
			"byteLength":1692,
			"byteOffset":1692,
			"target":34962
		},
		{
			"buffer":0,
			"byteLength":1128,
			"byteOffset":3384,
			"target":34962
		},
		{
			"buffer":0,
			"byteLength":480,
			"byteOffset":4512,
			"target":34963
		},
		{
			"buffer":0,
			"byteLength":1488,
			"byteOffset":4992,
			"target":34962
		},
		{
			"buffer":0,
			"byteLength":1488,
			"byteOffset":6480,
			"target":34962
		},
		{
			"buffer":0,
			"byteLength":992,
			"byteOffset":7968,
			"target":34962
		},
		{
			"buffer":0,
			"byteLength":420,
			"byteOffset":8960,
			"target":34963
		},
		{
			"buffer":0,
			"byteLength":1608,
			"byteOffset":9380,
			"target":34962
		},
		{
			"buffer":0,
			"byteLength":1608,
			"byteOffset":10988,
			"target":34962
		},
		{
			"buffer":0,
			"byteLength":1072,
			"byteOffset":12596,
			"target":34962
		},
		{
			"buffer":0,
			"byteLength":456,
			"byteOffset":13668,
			"target":34963
		},
		{
			"buffer":0,
			"byteLength":1272,
			"byteOffset":14124,
			"target":34962
		},
		{
			"buffer":0,
			"byteLength":1272,
			"byteOffset":15396,
			"target":34962
		},
		{
			"buffer":0,
			"byteLength":848,
			"byteOffset":16668,
			"target":34962
		},
		{
			"buffer":0,
			"byteLength":336,
			"byteOffset":17516,
			"target":34963
		},
		{
			"buffer":0,
			"byteLength":1032,
			"byteOffset":17852,
			"target":34962
		},
		{
			"buffer":0,
			"byteLength":1032,
			"byteOffset":18884,
			"target":34962
		},
		{
			"buffer":0,
			"byteLength":688,
			"byteOffset":19916,
			"target":34962
		},
		{
			"buffer":0,
			"byteLength":288,
			"byteOffset":20604,
			"target":34963
		},
		{
			"buffer":0,
			"byteLength":1104,
			"byteOffset":20892,
			"target":34962
		},
		{
			"buffer":0,
			"byteLength":1104,
			"byteOffset":21996,
			"target":34962
		},
		{
			"buffer":0,
			"byteLength":736,
			"byteOffset":23100,
			"target":34962
		},
		{
			"buffer":0,
			"byteLength":300,
			"byteOffset":23836,
			"target":34963
		},
		{
			"buffer":0,
			"byteLength":816,
			"byteOffset":24136,
			"target":34962
		},
		{
			"buffer":0,
			"byteLength":816,
			"byteOffset":24952,
			"target":34962
		},
		{
			"buffer":0,
			"byteLength":544,
			"byteOffset":25768,
			"target":34962
		},
		{
			"buffer":0,
			"byteLength":216,
			"byteOffset":26312,
			"target":34963
		},
		{
			"buffer":0,
			"byteLength":1392,
			"byteOffset":26528,
			"target":34962
		},
		{
			"buffer":0,
			"byteLength":1392,
			"byteOffset":27920,
			"target":34962
		},
		{
			"buffer":0,
			"byteLength":928,
			"byteOffset":29312,
			"target":34962
		},
		{
			"buffer":0,
			"byteLength":384,
			"byteOffset":30240,
			"target":34963
		},
		{
			"buffer":0,
			"byteLength":504,
			"byteOffset":30624,
			"target":34962
		},
		{
			"buffer":0,
			"byteLength":504,
			"byteOffset":31128,
			"target":34962
		},
		{
			"buffer":0,
			"byteLength":336,
			"byteOffset":31632,
			"target":34962
		},
		{
			"buffer":0,
			"byteLength":132,
			"byteOffset":31968,
			"target":34963
		},
		{
			"buffer":0,
			"byteLength":408,
			"byteOffset":32100,
			"target":34962
		},
		{
			"buffer":0,
			"byteLength":408,
			"byteOffset":32508,
			"target":34962
		},
		{
			"buffer":0,
			"byteLength":272,
			"byteOffset":32916,
			"target":34962
		},
		{
			"buffer":0,
			"byteLength":108,
			"byteOffset":33188,
			"target":34963
		}
	],
	"samplers":[
		{
			"magFilter":9729,
			"minFilter":9987
		}
	],
	"buffers":[
		{
			"byteLength":33296,
			"uri":"Column_BB.bin"
		}
	]
}
