{
	"asset":{
		"generator":"Khronos glTF Blender I/O v4.5.48",
		"version":"2.0"
	},
	"scene":0,
	"scenes":[
		{
			"extras":{
				"zen_display":{
					"stacked":false,
					"finished":false,
					"stretch":false
				},
				"bc":{
					"snap":{
						"hit":false
					}
				},
				"keentools_fb_settings":{},
				"uuid":"54bb0580-6b98-4f4d-9b6d-7860c7b05ea8",
				"assets reported":{},
				"vs":{
					"export_list":[
						{
							"name":"boolean_cutters.dmx",
							"collection":{
								"name":"boolean_cutters",
								"type":"Collection"
							},
							"ob_type":"COLLECTION",
							"icon":"GROUP"
						},
						{
							"name":"Column-rigid.dmx",
							"collection":{
								"name":"Column-rigid",
								"type":"Collection"
							},
							"ob_type":"COLLECTION",
							"icon":"GROUP"
						},
						{
							"name":"Column-solid.dmx",
							"collection":{
								"name":"Column-solid",
								"type":"Collection"
							},
							"ob_type":"COLLECTION",
							"icon":"GROUP"
						},
						{
							"name":"Work.dmx",
							"collection":{
								"name":"Work",
								"type":"Collection"
							},
							"ob_type":"COLLECTION",
							"icon":"GROUP"
						}
					]
				},
				"qremesher":{},
				"GodotPipelineProps":{
					"mesh_data":0,
					"collision_UI":1,
					"col_types":5,
					"body_types":1,
					"discard_mesh":0,
					"export_UI":1,
					"save_path":"D:\\Godot_game\\Projects\\awesome-godot-test-project\\assets\\Environment\\active_objects\\Column\\Column_Shell\\Column_F1-rigid.gltf",
					"counter":17,
					"display_wire":0,
					"global_UI":0
				}
			},
			"name":"Scene",
			"nodes":[
				0,
				1,
				2,
				3,
				4,
				5,
				6,
				7,
				8,
				9,
				10,
				11,
				12,
				13,
				14
			]
		}
	],
	"nodes":[
		{
			"extras":{
				"center_x":0.07882919907569885,
				"center_z":0.21479952335357666,
				"center_y":0.11637082695960999,
				"booleans":{
					"canvas":1
				},
				"collision":"simple-r"
			},
			"mesh":0,
			"name":"Column_F24.001",
			"translation":[
				-0.09418445825576782,
				-0.6084305047988892,
				0.760604739189148
			]
		},
		{
			"extras":{
				"center_x":0.07882919907569885,
				"center_z":0.21479952335357666,
				"center_y":0.11637082695960999,
				"booleans":{
					"canvas":1
				},
				"collision":"simple-r"
			},
			"mesh":1,
			"name":"Column_F24.002",
			"translation":[
				-0.09418445825576782,
				-0.6084305047988892,
				0.760604739189148
			]
		},
		{
			"extras":{
				"center_x":0.07882919907569885,
				"center_z":0.21479952335357666,
				"center_y":0.11637082695960999,
				"booleans":{
					"canvas":1
				},
				"collision":"simple-r"
			},
			"mesh":2,
			"name":"Column_F24.003",
			"translation":[
				-0.09418445825576782,
				-0.6084305047988892,
				0.760604739189148
			]
		},
		{
			"extras":{
				"center_x":0.07882919907569885,
				"center_z":0.21479952335357666,
				"center_y":0.11637082695960999,
				"booleans":{
					"canvas":1
				},
				"collision":"simple-r"
			},
			"mesh":3,
			"name":"Column_F24.004",
			"translation":[
				-0.09418445825576782,
				-0.6084305047988892,
				0.760604739189148
			]
		},
		{
			"extras":{
				"center_x":0.07882919907569885,
				"center_z":0.21479952335357666,
				"center_y":0.11637082695960999,
				"booleans":{
					"canvas":1
				},
				"collision":"simple-r"
			},
			"mesh":4,
			"name":"Column_F24.005",
			"translation":[
				-0.09418445825576782,
				-0.6084305047988892,
				0.760604739189148
			]
		},
		{
			"extras":{
				"center_x":0.07882919907569885,
				"center_z":0.21479952335357666,
				"center_y":0.11637082695960999,
				"booleans":{
					"canvas":1
				},
				"collision":"simple-r"
			},
			"mesh":5,
			"name":"Column_F24.006",
			"translation":[
				-0.09418445825576782,
				-0.6084305047988892,
				0.760604739189148
			]
		},
		{
			"extras":{
				"center_x":0.07882919907569885,
				"center_z":0.21479952335357666,
				"center_y":0.11637082695960999,
				"booleans":{
					"canvas":1
				},
				"collision":"simple-r"
			},
			"mesh":6,
			"name":"Column_F24.007",
			"translation":[
				-0.09418445825576782,
				-0.6084305047988892,
				0.760604739189148
			]
		},
		{
			"extras":{
				"center_x":0.07882919907569885,
				"center_z":0.21479952335357666,
				"center_y":0.11637082695960999,
				"booleans":{
					"canvas":1
				},
				"collision":"simple-r"
			},
			"mesh":7,
			"name":"Column_F24.008",
			"translation":[
				-0.09418445825576782,
				-0.6084305047988892,
				0.760604739189148
			]
		},
		{
			"extras":{
				"center_x":0.07882919907569885,
				"center_z":0.21479952335357666,
				"center_y":0.11637082695960999,
				"booleans":{
					"canvas":1
				},
				"collision":"simple-r"
			},
			"mesh":8,
			"name":"Column_F24.009",
			"translation":[
				-0.09418445825576782,
				-0.6084305047988892,
				0.760604739189148
			]
		},
		{
			"extras":{
				"center_x":0.07882919907569885,
				"center_z":0.21479952335357666,
				"center_y":0.11637082695960999,
				"booleans":{
					"canvas":1
				},
				"collision":"simple-r"
			},
			"mesh":9,
			"name":"Column_F24.010",
			"translation":[
				-0.09418445825576782,
				-0.6084305047988892,
				0.760604739189148
			]
		},
		{
			"extras":{
				"center_x":0.07882919907569885,
				"center_z":0.21479952335357666,
				"center_y":0.11637082695960999,
				"booleans":{
					"canvas":1
				},
				"collision":"simple-r"
			},
			"mesh":10,
			"name":"Column_F24.011",
			"translation":[
				-0.09418445825576782,
				-0.6084305047988892,
				0.760604739189148
			]
		},
		{
			"extras":{
				"center_x":0.07882919907569885,
				"center_z":0.21479952335357666,
				"center_y":0.11637082695960999,
				"booleans":{
					"canvas":1
				},
				"collision":"simple-r"
			},
			"mesh":11,
			"name":"Column_F24.012",
			"translation":[
				-0.09418445825576782,
				-0.6084305047988892,
				0.760604739189148
			]
		},
		{
			"extras":{
				"center_x":0.07882919907569885,
				"center_z":0.21479952335357666,
				"center_y":0.11637082695960999,
				"booleans":{
					"canvas":1
				},
				"collision":"simple-r"
			},
			"mesh":12,
			"name":"Column_F24.013",
			"translation":[
				-0.09418445825576782,
				-0.6084305047988892,
				0.760604739189148
			]
		},
		{
			"extras":{
				"center_x":0.07882919907569885,
				"center_z":0.21479952335357666,
				"center_y":0.11637082695960999,
				"booleans":{
					"canvas":1
				},
				"collision":"simple-r"
			},
			"mesh":13,
			"name":"Column_F24.014",
			"translation":[
				-0.09418445825576782,
				-0.6084305047988892,
				0.760604739189148
			]
		},
		{
			"extras":{
				"center_x":0.07882919907569885,
				"center_z":0.21479952335357666,
				"center_y":0.11637082695960999,
				"booleans":{
					"canvas":1
				},
				"collision":"simple-r"
			},
			"mesh":14,
			"name":"Column_F24.015",
			"translation":[
				-0.09418445825576782,
				-0.6084305047988892,
				0.760604739189148
			]
		}
	],
	"materials":[
		{
			"doubleSided":true,
			"name":"Column.002",
			"pbrMetallicRoughness":{
				"baseColorTexture":{
					"index":0
				},
				"metallicFactor":0,
				"roughnessFactor":0.5
			}
		}
	],
	"meshes":[
		{
			"name":"Column_F2.001_cell.027",
			"primitives":[
				{
					"attributes":{
						"POSITION":0,
						"NORMAL":1,
						"TEXCOORD_0":2
					},
					"indices":3,
					"material":0
				}
			]
		},
		{
			"name":"Column_F2.001_cell.032",
			"primitives":[
				{
					"attributes":{
						"POSITION":4,
						"NORMAL":5,
						"TEXCOORD_0":6
					},
					"indices":7,
					"material":0
				}
			]
		},
		{
			"name":"Column_F2.001_cell.033",
			"primitives":[
				{
					"attributes":{
						"POSITION":8,
						"NORMAL":9,
						"TEXCOORD_0":10
					},
					"indices":11,
					"material":0
				}
			]
		},
		{
			"name":"Column_F2.001_cell.034",
			"primitives":[
				{
					"attributes":{
						"POSITION":12,
						"NORMAL":13,
						"TEXCOORD_0":14
					},
					"indices":15,
					"material":0
				}
			]
		},
		{
			"name":"Column_F2.001_cell.035",
			"primitives":[
				{
					"attributes":{
						"POSITION":16,
						"NORMAL":17,
						"TEXCOORD_0":18
					},
					"indices":19,
					"material":0
				}
			]
		},
		{
			"name":"Column_F2.001_cell.036",
			"primitives":[
				{
					"attributes":{
						"POSITION":20,
						"NORMAL":21,
						"TEXCOORD_0":22
					},
					"indices":23,
					"material":0
				}
			]
		},
		{
			"name":"Column_F2.001_cell.037",
			"primitives":[
				{
					"attributes":{
						"POSITION":24,
						"NORMAL":25,
						"TEXCOORD_0":26
					},
					"indices":27,
					"material":0
				}
			]
		},
		{
			"name":"Column_F2.001_cell.038",
			"primitives":[
				{
					"attributes":{
						"POSITION":28,
						"NORMAL":29,
						"TEXCOORD_0":30
					},
					"indices":31,
					"material":0
				}
			]
		},
		{
			"name":"Column_F2.001_cell.039",
			"primitives":[
				{
					"attributes":{
						"POSITION":32,
						"NORMAL":33,
						"TEXCOORD_0":34
					},
					"indices":35,
					"material":0
				}
			]
		},
		{
			"name":"Column_F2.001_cell.040",
			"primitives":[
				{
					"attributes":{
						"POSITION":36,
						"NORMAL":37,
						"TEXCOORD_0":38
					},
					"indices":39,
					"material":0
				}
			]
		},
		{
			"name":"Column_F2.001_cell.041",
			"primitives":[
				{
					"attributes":{
						"POSITION":40,
						"NORMAL":41,
						"TEXCOORD_0":42
					},
					"indices":43,
					"material":0
				}
			]
		},
		{
			"name":"Column_F2.001_cell.042",
			"primitives":[
				{
					"attributes":{
						"POSITION":44,
						"NORMAL":45,
						"TEXCOORD_0":46
					},
					"indices":47,
					"material":0
				}
			]
		},
		{
			"name":"Column_F2.001_cell.043",
			"primitives":[
				{
					"attributes":{
						"POSITION":48,
						"NORMAL":49,
						"TEXCOORD_0":50
					},
					"indices":51,
					"material":0
				}
			]
		},
		{
			"name":"Column_F2.001_cell.044",
			"primitives":[
				{
					"attributes":{
						"POSITION":52,
						"NORMAL":53,
						"TEXCOORD_0":54
					},
					"indices":55,
					"material":0
				}
			]
		},
		{
			"name":"Column_F2.001_cell.045",
			"primitives":[
				{
					"attributes":{
						"POSITION":56,
						"NORMAL":57,
						"TEXCOORD_0":58
					},
					"indices":59,
					"material":0
				}
			]
		}
	],
	"textures":[
		{
			"sampler":0,
			"source":0
		}
	],
	"images":[
		{
			"mimeType":"image/png",
			"name":"Column_SL",
			"uri":"Column_SL.png"
		}
	],
	"accessors":[
		{
			"bufferView":0,
			"componentType":5126,
			"count":30,
			"max":[
				1.0634739398956299,
				-0.209587961435318,
				0.17200607061386108
			],
			"min":[
				0.9191594123840332,
				-0.33916568756103516,
				-0.1076016053557396
			],
			"type":"VEC3"
		},
		{
			"bufferView":1,
			"componentType":5126,
			"count":30,
			"type":"VEC3"
		},
		{
			"bufferView":2,
			"componentType":5126,
			"count":30,
			"type":"VEC2"
		},
		{
			"bufferView":3,
			"componentType":5123,
			"count":48,
			"type":"SCALAR"
		},
		{
			"bufferView":4,
			"componentType":5126,
			"count":52,
			"max":[
				0.17013925313949585,
				1.556026816368103,
				0.23939526081085205
			],
			"min":[
				-0.8283078670501709,
				0.38965797424316406,
				0.08769458532333374
			],
			"type":"VEC3"
		},
		{
			"bufferView":5,
			"componentType":5126,
			"count":52,
			"type":"VEC3"
		},
		{
			"bufferView":6,
			"componentType":5126,
			"count":52,
			"type":"VEC2"
		},
		{
			"bufferView":7,
			"componentType":5123,
			"count":90,
			"type":"SCALAR"
		},
		{
			"bufferView":8,
			"componentType":5126,
			"count":60,
			"max":[
				0.9399257898330688,
				0.38761046528816223,
				-1.6009759902954102
			],
			"min":[
				-0.8381615877151489,
				-0.3391658663749695,
				-1.7606048583984375
			],
			"type":"VEC3"
		},
		{
			"bufferView":9,
			"componentType":5126,
			"count":60,
			"type":"VEC3"
		},
		{
			"bufferView":10,
			"componentType":5126,
			"count":60,
			"type":"VEC2"
		},
		{
			"bufferView":11,
			"componentType":5123,
			"count":108,
			"type":"SCALAR"
		},
		{
			"bufferView":12,
			"componentType":5126,
			"count":74,
			"max":[
				0.9949633479118347,
				0.5719075798988342,
				0.23939523100852966
			],
			"min":[
				-0.8283078074455261,
				-0.33916592597961426,
				0.08769458532333374
			],
			"type":"VEC3"
		},
		{
			"bufferView":13,
			"componentType":5126,
			"count":74,
			"type":"VEC3"
		},
		{
			"bufferView":14,
			"componentType":5126,
			"count":74,
			"type":"VEC2"
		},
		{
			"bufferView":15,
			"componentType":5123,
			"count":132,
			"type":"SCALAR"
		},
		{
			"bufferView":16,
			"componentType":5126,
			"count":48,
			"max":[
				1.0278587341308594,
				1.041745662689209,
				-1.612090826034546
			],
			"min":[
				0.43552520871162415,
				-0.3391658663749695,
				-1.7606046199798584
			],
			"type":"VEC3"
		},
		{
			"bufferView":17,
			"componentType":5126,
			"count":48,
			"type":"VEC3"
		},
		{
			"bufferView":18,
			"componentType":5126,
			"count":48,
			"type":"VEC2"
		},
		{
			"bufferView":19,
			"componentType":5123,
			"count":84,
			"type":"SCALAR"
		},
		{
			"bufferView":20,
			"componentType":5126,
			"count":36,
			"max":[
				1.094184398651123,
				1.5560266971588135,
				-1.0948164463043213
			],
			"min":[
				0.9587665796279907,
				1.0089669227600098,
				-1.683097004890442
			],
			"type":"VEC3"
		},
		{
			"bufferView":21,
			"componentType":5126,
			"count":36,
			"type":"VEC3"
		},
		{
			"bufferView":22,
			"componentType":5126,
			"count":36,
			"type":"VEC2"
		},
		{
			"bufferView":23,
			"componentType":5123,
			"count":60,
			"type":"SCALAR"
		},
		{
			"bufferView":24,
			"componentType":5126,
			"count":46,
			"max":[
				0.9949634075164795,
				1.556026816368103,
				0.23939523100852966
			],
			"min":[
				-0.13364535570144653,
				0.5439638495445251,
				0.08769458532333374
			],
			"type":"VEC3"
		},
		{
			"bufferView":25,
			"componentType":5126,
			"count":46,
			"type":"VEC3"
		},
		{
			"bufferView":26,
			"componentType":5126,
			"count":46,
			"type":"VEC2"
		},
		{
			"bufferView":27,
			"componentType":5123,
			"count":78,
			"type":"SCALAR"
		},
		{
			"bufferView":28,
			"componentType":5126,
			"count":82,
			"max":[
				1.0097272396087646,
				1.5560269355773926,
				-1.6009758710861206
			],
			"min":[
				-0.8381615877151489,
				0.37046343088150024,
				-1.7606046199798584
			],
			"type":"VEC3"
		},
		{
			"bufferView":29,
			"componentType":5126,
			"count":82,
			"type":"VEC3"
		},
		{
			"bufferView":30,
			"componentType":5126,
			"count":82,
			"type":"VEC2"
		},
		{
			"bufferView":31,
			"componentType":5123,
			"count":150,
			"type":"SCALAR"
		},
		{
			"bufferView":32,
			"componentType":5126,
			"count":56,
			"max":[
				-0.7689050436019897,
				1.5560269355773926,
				-0.6554573178291321
			],
			"min":[
				-0.9058155417442322,
				0.38977259397506714,
				-1.6617794036865234
			],
			"type":"VEC3"
		},
		{
			"bufferView":33,
			"componentType":5126,
			"count":56,
			"type":"VEC3"
		},
		{
			"bufferView":34,
			"componentType":5126,
			"count":56,
			"type":"VEC2"
		},
		{
			"bufferView":35,
			"componentType":5123,
			"count":102,
			"type":"SCALAR"
		},
		{
			"bufferView":36,
			"componentType":5126,
			"count":54,
			"max":[
				-0.7669823169708252,
				1.556026816368103,
				0.15493814647197723
			],
			"min":[
				-0.905815601348877,
				0.34209346771240234,
				-0.7930895090103149
			],
			"type":"VEC3"
		},
		{
			"bufferView":37,
			"componentType":5126,
			"count":54,
			"type":"VEC3"
		},
		{
			"bufferView":38,
			"componentType":5126,
			"count":54,
			"type":"VEC2"
		},
		{
			"bufferView":39,
			"componentType":5123,
			"count":96,
			"type":"SCALAR"
		},
		{
			"bufferView":40,
			"componentType":5126,
			"count":52,
			"max":[
				-0.7689050436019897,
				0.40498214960098267,
				-0.5290729999542236
			],
			"min":[
				-0.9058155417442322,
				-0.3391656279563904,
				-1.6617796421051025
			],
			"type":"VEC3"
		},
		{
			"bufferView":41,
			"componentType":5126,
			"count":52,
			"type":"VEC3"
		},
		{
			"bufferView":42,
			"componentType":5126,
			"count":52,
			"type":"VEC2"
		},
		{
			"bufferView":43,
			"componentType":5123,
			"count":90,
			"type":"SCALAR"
		},
		{
			"bufferView":44,
			"componentType":5126,
			"count":42,
			"max":[
				-0.7669822573661804,
				0.3966103494167328,
				0.15493811666965485
			],
			"min":[
				-0.905815601348877,
				-0.33916592597961426,
				-0.6175786852836609
			],
			"type":"VEC3"
		},
		{
			"bufferView":45,
			"componentType":5126,
			"count":42,
			"type":"VEC3"
		},
		{
			"bufferView":46,
			"componentType":5126,
			"count":42,
			"type":"VEC2"
		},
		{
			"bufferView":47,
			"componentType":5123,
			"count":72,
			"type":"SCALAR"
		},
		{
			"bufferView":48,
			"componentType":5126,
			"count":56,
			"max":[
				0.9949634075164795,
				1.1322789192199707,
				0.23939526081085205
			],
			"min":[
				0.07525759935379028,
				-0.23382925987243652,
				0.08769458532333374
			],
			"type":"VEC3"
		},
		{
			"bufferView":49,
			"componentType":5126,
			"count":56,
			"type":"VEC3"
		},
		{
			"bufferView":50,
			"componentType":5126,
			"count":56,
			"type":"VEC2"
		},
		{
			"bufferView":51,
			"componentType":5123,
			"count":90,
			"type":"SCALAR"
		},
		{
			"bufferView":52,
			"componentType":5126,
			"count":42,
			"max":[
				1.0941846370697021,
				1.556026816368103,
				0.17200614511966705
			],
			"min":[
				0.9191593527793884,
				1.1349990367889404,
				-0.48322442173957825
			],
			"type":"VEC3"
		},
		{
			"bufferView":53,
			"componentType":5126,
			"count":42,
			"type":"VEC3"
		},
		{
			"bufferView":54,
			"componentType":5126,
			"count":42,
			"type":"VEC2"
		},
		{
			"bufferView":55,
			"componentType":5123,
			"count":72,
			"type":"SCALAR"
		},
		{
			"bufferView":56,
			"componentType":5126,
			"count":94,
			"max":[
				1.0941846370697021,
				1.5560266971588135,
				0.1720062494277954
			],
			"min":[
				0.9191592931747437,
				-0.3391658663749695,
				-1.6599184274673462
			],
			"type":"VEC3"
		},
		{
			"bufferView":57,
			"componentType":5126,
			"count":94,
			"type":"VEC3"
		},
		{
			"bufferView":58,
			"componentType":5126,
			"count":94,
			"type":"VEC2"
		},
		{
			"bufferView":59,
			"componentType":5123,
			"count":174,
			"type":"SCALAR"
		}
	],
	"bufferViews":[
		{
			"buffer":0,
			"byteLength":360,
			"byteOffset":0,
			"target":34962
		},
		{
			"buffer":0,
			"byteLength":360,
			"byteOffset":360,
			"target":34962
		},
		{
			"buffer":0,
			"byteLength":240,
			"byteOffset":720,
			"target":34962
		},
		{
			"buffer":0,
			"byteLength":96,
			"byteOffset":960,
			"target":34963
		},
		{
			"buffer":0,
			"byteLength":624,
			"byteOffset":1056,
			"target":34962
		},
		{
			"buffer":0,
			"byteLength":624,
			"byteOffset":1680,
			"target":34962
		},
		{
			"buffer":0,
			"byteLength":416,
			"byteOffset":2304,
			"target":34962
		},
		{
			"buffer":0,
			"byteLength":180,
			"byteOffset":2720,
			"target":34963
		},
		{
			"buffer":0,
			"byteLength":720,
			"byteOffset":2900,
			"target":34962
		},
		{
			"buffer":0,
			"byteLength":720,
			"byteOffset":3620,
			"target":34962
		},
		{
			"buffer":0,
			"byteLength":480,
			"byteOffset":4340,
			"target":34962
		},
		{
			"buffer":0,
			"byteLength":216,
			"byteOffset":4820,
			"target":34963
		},
		{
			"buffer":0,
			"byteLength":888,
			"byteOffset":5036,
			"target":34962
		},
		{
			"buffer":0,
			"byteLength":888,
			"byteOffset":5924,
			"target":34962
		},
		{
			"buffer":0,
			"byteLength":592,
			"byteOffset":6812,
			"target":34962
		},
		{
			"buffer":0,
			"byteLength":264,
			"byteOffset":7404,
			"target":34963
		},
		{
			"buffer":0,
			"byteLength":576,
			"byteOffset":7668,
			"target":34962
		},
		{
			"buffer":0,
			"byteLength":576,
			"byteOffset":8244,
			"target":34962
		},
		{
			"buffer":0,
			"byteLength":384,
			"byteOffset":8820,
			"target":34962
		},
		{
			"buffer":0,
			"byteLength":168,
			"byteOffset":9204,
			"target":34963
		},
		{
			"buffer":0,
			"byteLength":432,
			"byteOffset":9372,
			"target":34962
		},
		{
			"buffer":0,
			"byteLength":432,
			"byteOffset":9804,
			"target":34962
		},
		{
			"buffer":0,
			"byteLength":288,
			"byteOffset":10236,
			"target":34962
		},
		{
			"buffer":0,
			"byteLength":120,
			"byteOffset":10524,
			"target":34963
		},
		{
			"buffer":0,
			"byteLength":552,
			"byteOffset":10644,
			"target":34962
		},
		{
			"buffer":0,
			"byteLength":552,
			"byteOffset":11196,
			"target":34962
		},
		{
			"buffer":0,
			"byteLength":368,
			"byteOffset":11748,
			"target":34962
		},
		{
			"buffer":0,
			"byteLength":156,
			"byteOffset":12116,
			"target":34963
		},
		{
			"buffer":0,
			"byteLength":984,
			"byteOffset":12272,
			"target":34962
		},
		{
			"buffer":0,
			"byteLength":984,
			"byteOffset":13256,
			"target":34962
		},
		{
			"buffer":0,
			"byteLength":656,
			"byteOffset":14240,
			"target":34962
		},
		{
			"buffer":0,
			"byteLength":300,
			"byteOffset":14896,
			"target":34963
		},
		{
			"buffer":0,
			"byteLength":672,
			"byteOffset":15196,
			"target":34962
		},
		{
			"buffer":0,
			"byteLength":672,
			"byteOffset":15868,
			"target":34962
		},
		{
			"buffer":0,
			"byteLength":448,
			"byteOffset":16540,
			"target":34962
		},
		{
			"buffer":0,
			"byteLength":204,
			"byteOffset":16988,
			"target":34963
		},
		{
			"buffer":0,
			"byteLength":648,
			"byteOffset":17192,
			"target":34962
		},
		{
			"buffer":0,
			"byteLength":648,
			"byteOffset":17840,
			"target":34962
		},
		{
			"buffer":0,
			"byteLength":432,
			"byteOffset":18488,
			"target":34962
		},
		{
			"buffer":0,
			"byteLength":192,
			"byteOffset":18920,
			"target":34963
		},
		{
			"buffer":0,
			"byteLength":624,
			"byteOffset":19112,
			"target":34962
		},
		{
			"buffer":0,
			"byteLength":624,
			"byteOffset":19736,
			"target":34962
		},
		{
			"buffer":0,
			"byteLength":416,
			"byteOffset":20360,
			"target":34962
		},
		{
			"buffer":0,
			"byteLength":180,
			"byteOffset":20776,
			"target":34963
		},
		{
			"buffer":0,
			"byteLength":504,
			"byteOffset":20956,
			"target":34962
		},
		{
			"buffer":0,
			"byteLength":504,
			"byteOffset":21460,
			"target":34962
		},
		{
			"buffer":0,
			"byteLength":336,
			"byteOffset":21964,
			"target":34962
		},
		{
			"buffer":0,
			"byteLength":144,
			"byteOffset":22300,
			"target":34963
		},
		{
			"buffer":0,
			"byteLength":672,
			"byteOffset":22444,
			"target":34962
		},
		{
			"buffer":0,
			"byteLength":672,
			"byteOffset":23116,
			"target":34962
		},
		{
			"buffer":0,
			"byteLength":448,
			"byteOffset":23788,
			"target":34962
		},
		{
			"buffer":0,
			"byteLength":180,
			"byteOffset":24236,
			"target":34963
		},
		{
			"buffer":0,
			"byteLength":504,
			"byteOffset":24416,
			"target":34962
		},
		{
			"buffer":0,
			"byteLength":504,
			"byteOffset":24920,
			"target":34962
		},
		{
			"buffer":0,
			"byteLength":336,
			"byteOffset":25424,
			"target":34962
		},
		{
			"buffer":0,
			"byteLength":144,
			"byteOffset":25760,
			"target":34963
		},
		{
			"buffer":0,
			"byteLength":1128,
			"byteOffset":25904,
			"target":34962
		},
		{
			"buffer":0,
			"byteLength":1128,
			"byteOffset":27032,
			"target":34962
		},
		{
			"buffer":0,
			"byteLength":752,
			"byteOffset":28160,
			"target":34962
		},
		{
			"buffer":0,
			"byteLength":348,
			"byteOffset":28912,
			"target":34963
		}
	],
	"samplers":[
		{
			"magFilter":9729,
			"minFilter":9987
		}
	],
	"buffers":[
		{
			"byteLength":29260,
			"uri":"Column_F1-rigid.bin"
		}
	]
}
