{
	"asset":{
		"generator":"Khronos glTF Blender I/O v4.5.48",
		"version":"2.0"
	},
	"extensionsUsed":[
		"KHR_materials_emissive_strength"
	],
	"scene":0,
	"scenes":[
		{
			"name":"Scene",
			"nodes":[
				0,
				1,
				2,
				3,
				4,
				5,
				6,
				7,
				8,
				9,
				10,
				11,
				12,
				13,
				14,
				15,
				16,
				17,
				18,
				19,
				20
			]
		}
	],
	"nodes":[
		{
			"mesh":0,
			"name":"Plane.001",
			"translation":[
				6.867833137512207,
				-6.357226848602295,
				5.729061126708984
			]
		},
		{
			"mesh":1,
			"name":"Wall_Stone_col",
			"rotation":[
				-0.8143550753593445,
				-0.2055916041135788,
				-0.27971792221069336,
				0.4650976359844208
			],
			"translation":[
				0.4145221710205078,
				6.950451374053955,
				-3.0712990760803223
			]
		},
		{
			"mesh":2,
			"name":"Adjustable Mannequin Mesh",
			"translation":[
				0.2732686996459961,
				-0.6953290700912476,
				5.198727607727051
			]
		},
		{
			"mesh":3,
			"name":"Stone",
			"translation":[
				-17.423547744750977,
				0.35842999815940857,
				29.09258270263672
			]
		},
		{
			"mesh":4,
			"name":"Floor1_col",
			"rotation":[
				0,
				0.7071068286895752,
				0,
				0.7071068286895752
			],
			"translation":[
				-20.46841812133789,
				1.2524932622909546,
				-35.500606536865234
			]
		},
		{
			"mesh":5,
			"name":"Stone2",
			"rotation":[
				0,
				0.7071068286895752,
				0,
				0.7071068286895752
			],
			"translation":[
				-3.7845818996429443,
				0.6043788194656372,
				-30.240921020507812
			]
		},
		{
			"mesh":6,
			"name":"Stone.001_col",
			"translation":[
				-17.423547744750977,
				0.35842999815940857,
				29.09258270263672
			]
		},
		{
			"mesh":7,
			"name":"Tree_col",
			"translation":[
				0.2364950180053711,
				0.552757740020752,
				-2.739400863647461
			]
		},
		{
			"mesh":8,
			"name":"branchess",
			"rotation":[
				0.10617858171463013,
				0.6165417432785034,
				-0.7441447377204895,
				0.23420290648937225
			],
			"scale":[
				1.0776448249816895,
				1.0776448249816895,
				1.0776448249816895
			],
			"translation":[
				0.9747515916824341,
				9.242393493652344,
				-5.436676979064941
			]
		},
		{
			"mesh":9,
			"name":"Tree_Border",
			"rotation":[
				0,
				0.04361938685178757,
				0,
				0.9990482330322266
			],
			"translation":[
				0.23649489879608154,
				0.03244248032569885,
				-2.739400863647461
			]
		},
		{
			"mesh":10,
			"name":"Cylinder",
			"translation":[
				0.23649489879608154,
				0.2467186450958252,
				-2.739400863647461
			]
		},
		{
			"mesh":11,
			"name":"Moon",
			"rotation":[
				0.9533341526985168,
				0.009390512481331825,
				0.19102905690670013,
				0.2336101531982422
			],
			"scale":[
				5.387206077575684,
				5.387206077575684,
				5.387206554412842
			],
			"translation":[
				1.5499725341796875,
				49.61095428466797,
				-21.69359016418457
			]
		},
		{
			"mesh":12,
			"name":"Tree_col.001",
			"translation":[
				0.2364950180053711,
				0.552757740020752,
				-2.739400863647461
			]
		},
		{
			"mesh":13,
			"name":"Flowe3",
			"translation":[
				5.824377059936523,
				-3.7352371215820312,
				-7.795401573181152
			]
		},
		{
			"mesh":14,
			"name":"Flower",
			"translation":[
				5.151472568511963,
				-3.7352371215820312,
				-7.980040550231934
			]
		},
		{
			"mesh":15,
			"name":"Flower2",
			"translation":[
				5.602810859680176,
				-3.7352371215820312,
				-8.312389373779297
			]
		},
		{
			"name":"Empty.001",
			"rotation":[
				0.70710688829422,
				0,
				0,
				0.7071066498756409
			],
			"scale":[
				0.5080224871635437,
				0.5080224871635437,
				0.5080224871635437
			],
			"translation":[
				-0.8872434496879578,
				0.931348979473114,
				5.045073509216309
			]
		},
		{
			"mesh":16,
			"name":"Plane.012",
			"rotation":[
				0.7998429536819458,
				0.25767987966537476,
				-0.48618170619010925,
				0.23974965512752533
			],
			"scale":[
				0.5769782662391663,
				0.5769782066345215,
				0.5769782662391663
			],
			"translation":[
				0.08849936723709106,
				1.6149777173995972,
				4.932107925415039
			]
		},
		{
			"mesh":17,
			"name":"branches.005",
			"rotation":[
				-0.32394707202911377,
				0.5921826958656311,
				0.30784058570861816,
				0.6705313324928284
			],
			"scale":[
				0.43163788318634033,
				0.43163785338401794,
				0.43163785338401794
			],
			"translation":[
				-0.1042381227016449,
				2.593569278717041,
				4.26936149597168
			]
		},
		{
			"mesh":18,
			"name":"branches.002",
			"rotation":[
				0.08839938789606094,
				0.8541632890701294,
				0.2478838413953781,
				0.44849100708961487
			],
			"scale":[
				0.4912930428981781,
				0.4912931025028229,
				0.4912930428981781
			],
			"translation":[
				0.7761465311050415,
				2.627110719680786,
				4.250855922698975
			]
		},
		{
			"mesh":19,
			"name":"Cube",
			"rotation":[
				0.14983902871608734,
				0.2803890109062195,
				-0.5361167192459106,
				0.7819905281066895
			],
			"translation":[
				0.4198634922504425,
				1.9584801197052002,
				4.670289039611816
			]
		}
	],
	"materials":[
		{
			"doubleSided":true,
			"name":"Stone_Wall",
			"normalTexture":{
				"index":0,
				"scale":0.20000000298023224
			},
			"pbrMetallicRoughness":{
				"baseColorTexture":{
					"index":1
				},
				"metallicFactor":0,
				"roughnessFactor":0.5
			}
		},
		{
			"doubleSided":true,
			"name":"Wall",
			"normalTexture":{
				"index":2,
				"scale":0.20000000298023224
			},
			"pbrMetallicRoughness":{
				"baseColorTexture":{
					"index":3
				},
				"metallicFactor":0,
				"roughnessFactor":0.5
			}
		},
		{
			"doubleSided":true,
			"name":"Marble ST",
			"normalTexture":{
				"index":4,
				"scale":0.10000000149011612
			},
			"pbrMetallicRoughness":{
				"baseColorTexture":{
					"index":5
				},
				"metallicFactor":0,
				"roughnessFactor":0.5
			}
		},
		{
			"doubleSided":true,
			"name":"Floor",
			"normalTexture":{
				"index":6,
				"scale":0.20000000298023224
			},
			"pbrMetallicRoughness":{
				"baseColorTexture":{
					"index":7
				},
				"metallicFactor":0,
				"roughnessFactor":0.5
			}
		},
		{
			"doubleSided":true,
			"name":"Marble",
			"pbrMetallicRoughness":{
				"baseColorTexture":{
					"index":8
				},
				"metallicFactor":0,
				"roughnessFactor":0.8564954996109009
			}
		},
		{
			"doubleSided":true,
			"name":"Grass",
			"pbrMetallicRoughness":{
				"baseColorTexture":{
					"index":9
				},
				"metallicFactor":0,
				"roughnessFactor":0.5
			}
		},
		{
			"doubleSided":true,
			"name":"Tree",
			"normalTexture":{
				"index":10,
				"scale":0.20000000298023224
			},
			"pbrMetallicRoughness":{
				"baseColorTexture":{
					"index":11
				},
				"metallicFactor":0,
				"roughnessFactor":0.6499999761581421
			}
		},
		{
			"alphaMode":"BLEND",
			"doubleSided":true,
			"name":"branches",
			"pbrMetallicRoughness":{
				"baseColorTexture":{
					"index":12
				},
				"metallicFactor":0,
				"roughnessFactor":0.5
			}
		},
		{
			"alphaMode":"BLEND",
			"doubleSided":true,
			"name":"Flower3",
			"pbrMetallicRoughness":{
				"baseColorTexture":{
					"index":13
				},
				"metallicFactor":0,
				"roughnessFactor":0.5
			}
		},
		{
			"alphaMode":"BLEND",
			"doubleSided":true,
			"name":"Flower2",
			"pbrMetallicRoughness":{
				"baseColorTexture":{
					"index":14
				},
				"metallicFactor":0,
				"roughnessFactor":0.5
			}
		},
		{
			"alphaMode":"BLEND",
			"doubleSided":true,
			"name":"Flower",
			"pbrMetallicRoughness":{
				"baseColorTexture":{
					"index":15
				},
				"metallicFactor":0,
				"roughnessFactor":0.5
			}
		},
		{
			"doubleSided":true,
			"name":"Dark_grey",
			"pbrMetallicRoughness":{
				"baseColorFactor":[
					0.14179621636867523,
					0.14179621636867523,
					0.14179621636867523,
					1
				],
				"metallicFactor":0,
				"roughnessFactor":0.5
			}
		},
		{
			"alphaMode":"BLEND",
			"doubleSided":true,
			"emissiveFactor":[
				1,
				1,
				1
			],
			"emissiveTexture":{
				"index":16
			},
			"extensions":{
				"KHR_materials_emissive_strength":{
					"emissiveStrength":2
				}
			},
			"name":"Moon",
			"pbrMetallicRoughness":{
				"baseColorTexture":{
					"index":17
				},
				"metallicFactor":0,
				"roughnessFactor":0.5
			}
		},
		{
			"alphaMode":"BLEND",
			"doubleSided":true,
			"name":"Myosotis_base",
			"pbrMetallicRoughness":{
				"baseColorTexture":{
					"index":18,
					"texCoord":1
				},
				"metallicFactor":0,
				"roughnessFactor":0.5
			}
		},
		{
			"alphaMode":"BLEND",
			"doubleSided":true,
			"emissiveFactor":[
				1,
				1,
				1
			],
			"emissiveTexture":{
				"index":19
			},
			"extensions":{
				"KHR_materials_emissive_strength":{
					"emissiveStrength":1.5
				}
			},
			"name":"Flower3_em",
			"pbrMetallicRoughness":{
				"baseColorTexture":{
					"index":20
				},
				"metallicFactor":0,
				"roughnessFactor":0.5
			}
		},
		{
			"alphaMode":"BLEND",
			"doubleSided":true,
			"name":"branches.001",
			"pbrMetallicRoughness":{
				"baseColorTexture":{
					"index":21
				},
				"metallicFactor":0,
				"roughnessFactor":0.5
			}
		},
		{
			"alphaMode":"BLEND",
			"doubleSided":true,
			"name":"Flower2.001",
			"pbrMetallicRoughness":{
				"baseColorTexture":{
					"index":22
				},
				"metallicFactor":0,
				"roughnessFactor":0.5
			}
		},
		{
			"doubleSided":true,
			"name":"Metal_Polish",
			"pbrMetallicRoughness":{
				"baseColorFactor":[
					0.4868820905685425,
					0.7562859058380127,
					0.8000074625015259,
					1
				],
				"roughnessFactor":0.1435045450925827
			}
		}
	],
	"meshes":[
		{
			"name":"Plane",
			"primitives":[
				{
					"attributes":{
						"POSITION":0,
						"NORMAL":1,
						"TEXCOORD_0":2,
						"TEXCOORD_1":3
					},
					"indices":4,
					"material":0
				}
			]
		},
		{
			"name":"Wall.001",
			"primitives":[
				{
					"attributes":{
						"POSITION":5,
						"NORMAL":6,
						"TEXCOORD_0":7,
						"COLOR_0":8,
						"COLOR_1":9
					},
					"indices":10,
					"material":0
				},
				{
					"attributes":{
						"POSITION":11,
						"NORMAL":12,
						"TEXCOORD_0":13,
						"COLOR_0":14,
						"COLOR_1":15
					},
					"indices":16,
					"material":1
				}
			]
		},
		{
			"name":"Adjustable Mannequin Mesh.002",
			"primitives":[
				{
					"attributes":{
						"POSITION":17,
						"NORMAL":18,
						"TEXCOORD_0":19,
						"COLOR_0":20
					},
					"indices":21,
					"material":2
				}
			]
		},
		{
			"name":"Stone.120",
			"primitives":[
				{
					"attributes":{
						"POSITION":22,
						"NORMAL":23,
						"TEXCOORD_0":24
					},
					"indices":25,
					"material":3
				},
				{
					"attributes":{
						"POSITION":26,
						"NORMAL":27,
						"TEXCOORD_0":28
					},
					"indices":29,
					"material":4
				},
				{
					"attributes":{
						"POSITION":30,
						"NORMAL":31,
						"TEXCOORD_0":32
					},
					"indices":33,
					"material":1
				}
			]
		},
		{
			"name":"Floor1",
			"primitives":[
				{
					"attributes":{
						"POSITION":34,
						"NORMAL":35,
						"TEXCOORD_0":36
					},
					"indices":37,
					"material":3
				}
			]
		},
		{
			"name":"Stone2",
			"primitives":[
				{
					"attributes":{
						"POSITION":38,
						"NORMAL":39,
						"TEXCOORD_0":40
					},
					"indices":41,
					"material":3
				},
				{
					"attributes":{
						"POSITION":42,
						"NORMAL":43,
						"TEXCOORD_0":44
					},
					"indices":45,
					"material":1
				},
				{
					"attributes":{
						"POSITION":46,
						"NORMAL":47,
						"TEXCOORD_0":48
					},
					"indices":49,
					"material":4
				}
			]
		},
		{
			"name":"Stone.001",
			"primitives":[
				{
					"attributes":{
						"POSITION":50,
						"NORMAL":51,
						"TEXCOORD_0":52
					},
					"indices":53,
					"material":1
				}
			]
		},
		{
			"name":"Cylinder.001",
			"primitives":[
				{
					"attributes":{
						"POSITION":54,
						"NORMAL":55,
						"TEXCOORD_0":56
					},
					"indices":57,
					"material":4
				},
				{
					"attributes":{
						"POSITION":58,
						"NORMAL":59,
						"TEXCOORD_0":60
					},
					"indices":61,
					"material":5
				},
				{
					"attributes":{
						"POSITION":62,
						"NORMAL":63,
						"TEXCOORD_0":64
					},
					"indices":65,
					"material":6
				}
			]
		},
		{
			"name":"branches.002",
			"primitives":[
				{
					"attributes":{
						"POSITION":66,
						"NORMAL":67,
						"TEXCOORD_0":68
					},
					"indices":69,
					"material":7
				},
				{
					"attributes":{
						"POSITION":70,
						"NORMAL":71,
						"TEXCOORD_0":72
					},
					"indices":73,
					"material":8
				},
				{
					"attributes":{
						"POSITION":74,
						"NORMAL":75,
						"TEXCOORD_0":76
					},
					"indices":77,
					"material":9
				},
				{
					"attributes":{
						"POSITION":78,
						"NORMAL":79,
						"TEXCOORD_0":80
					},
					"indices":81,
					"material":10
				}
			]
		},
		{
			"name":"Cylinder.002",
			"primitives":[
				{
					"attributes":{
						"POSITION":82,
						"NORMAL":83,
						"TEXCOORD_0":84
					},
					"indices":85,
					"material":4
				}
			]
		},
		{
			"name":"Cylinder",
			"primitives":[
				{
					"attributes":{
						"POSITION":86,
						"NORMAL":87,
						"TEXCOORD_0":88,
						"COLOR_0":89,
						"COLOR_1":90
					},
					"indices":91,
					"material":11
				}
			]
		},
		{
			"name":"Moon",
			"primitives":[
				{
					"attributes":{
						"POSITION":92,
						"NORMAL":93,
						"TEXCOORD_0":94
					},
					"indices":4,
					"material":12
				}
			]
		},
		{
			"name":"Cylinder.004",
			"primitives":[
				{
					"attributes":{
						"POSITION":95,
						"NORMAL":96,
						"TEXCOORD_0":97
					},
					"indices":98,
					"material":6
				}
			]
		},
		{
			"name":"Flower.002",
			"primitives":[
				{
					"attributes":{
						"POSITION":99,
						"NORMAL":100,
						"TEXCOORD_0":101
					},
					"indices":102,
					"material":8
				}
			]
		},
		{
			"name":"Flower",
			"primitives":[
				{
					"attributes":{
						"POSITION":103,
						"NORMAL":104,
						"TEXCOORD_0":105
					},
					"indices":106,
					"material":10
				}
			]
		},
		{
			"name":"Flower.001",
			"primitives":[
				{
					"attributes":{
						"POSITION":107,
						"NORMAL":108,
						"TEXCOORD_0":109
					},
					"indices":110,
					"material":9
				}
			]
		},
		{
			"name":"Plane.021",
			"primitives":[
				{
					"attributes":{
						"POSITION":111,
						"NORMAL":112,
						"TEXCOORD_0":113,
						"TEXCOORD_1":114
					},
					"indices":115,
					"material":13
				},
				{
					"attributes":{
						"POSITION":116,
						"NORMAL":117,
						"TEXCOORD_0":118,
						"TEXCOORD_1":119
					},
					"indices":120,
					"material":14
				}
			]
		},
		{
			"name":"branches.004",
			"primitives":[
				{
					"attributes":{
						"POSITION":121,
						"NORMAL":122,
						"TEXCOORD_0":123
					},
					"indices":124,
					"material":15
				},
				{
					"attributes":{
						"POSITION":125,
						"NORMAL":126,
						"TEXCOORD_0":127
					},
					"indices":128,
					"material":16
				}
			]
		},
		{
			"name":"branches.009",
			"primitives":[
				{
					"attributes":{
						"POSITION":129,
						"NORMAL":130,
						"TEXCOORD_0":131
					},
					"indices":132,
					"material":15
				},
				{
					"attributes":{
						"POSITION":133,
						"NORMAL":134,
						"TEXCOORD_0":135
					},
					"indices":136,
					"material":14
				}
			]
		},
		{
			"name":"Cube",
			"primitives":[
				{
					"attributes":{
						"POSITION":137,
						"NORMAL":138,
						"TEXCOORD_0":139
					},
					"indices":140,
					"material":17
				}
			]
		}
	],
	"textures":[
		{
			"sampler":0,
			"source":0
		},
		{
			"sampler":0,
			"source":1
		},
		{
			"sampler":0,
			"source":2
		},
		{
			"sampler":0,
			"source":3
		},
		{
			"sampler":0,
			"source":0
		},
		{
			"sampler":0,
			"source":4
		},
		{
			"sampler":0,
			"source":5
		},
		{
			"sampler":0,
			"source":6
		},
		{
			"sampler":0,
			"source":4
		},
		{
			"sampler":0,
			"source":7
		},
		{
			"sampler":0,
			"source":8
		},
		{
			"sampler":0,
			"source":9
		},
		{
			"sampler":1,
			"source":10
		},
		{
			"sampler":1,
			"source":11
		},
		{
			"sampler":1,
			"source":12
		},
		{
			"sampler":1,
			"source":13
		},
		{
			"sampler":1,
			"source":14
		},
		{
			"sampler":1,
			"source":14
		},
		{
			"sampler":0,
			"source":15
		},
		{
			"sampler":1,
			"source":12
		},
		{
			"sampler":1,
			"source":12
		},
		{
			"sampler":1,
			"source":10
		},
		{
			"sampler":1,
			"source":12
		}
	],
	"images":[
		{
			"mimeType":"image/png",
			"name":"Stone_Wall_SL_normal",
			"uri":"Stone_Wall_SL_normal.png"
		},
		{
			"mimeType":"image/png",
			"name":"Stone_Wall_SL",
			"uri":"Stone_Wall_SL.png"
		},
		{
			"mimeType":"image/png",
			"name":"Wall_Seamless_normal.png",
			"uri":"Wall_Seamless_normal.png.png"
		},
		{
			"mimeType":"image/png",
			"name":"Wall_Seamless.png",
			"uri":"Wall_Seamless.png.png"
		},
		{
			"mimeType":"image/png",
			"name":"Test3_Cave_projection",
			"uri":"Test3_Cave_projection.png"
		},
		{
			"mimeType":"image/png",
			"name":"Floor_projection_normal.png",
			"uri":"Floor_projection_normal.png.png"
		},
		{
			"mimeType":"image/png",
			"name":"Floor_projection",
			"uri":"Floor_projection.png"
		},
		{
			"mimeType":"image/png",
			"name":"Grass_PR",
			"uri":"Grass_PR.png"
		},
		{
			"mimeType":"image/png",
			"name":"Tree_projection_normal",
			"uri":"Tree_projection_normal.png"
		},
		{
			"mimeType":"image/png",
			"name":"Tree_projection",
			"uri":"Tree_projection.png"
		},
		{
			"mimeType":"image/png",
			"name":"branches",
			"uri":"branches.png"
		},
		{
			"mimeType":"image/png",
			"name":"Flower3",
			"uri":"Flower3.png"
		},
		{
			"mimeType":"image/png",
			"name":"Flower2",
			"uri":"Flower2.png"
		},
		{
			"mimeType":"image/png",
			"name":"Flower",
			"uri":"Flower.png"
		},
		{
			"mimeType":"image/png",
			"name":"Moon",
			"uri":"Moon.png"
		},
		{
			"mimeType":"image/png",
			"name":"Myosotis",
			"uri":"Myosotis.png"
		}
	],
	"accessors":[
		{
			"bufferView":0,
			"componentType":5126,
			"count":4,
			"max":[
				1,
				0,
				1
			],
			"min":[
				-1,
				0,
				-1
			],
			"type":"VEC3"
		},
		{
			"bufferView":1,
			"componentType":5126,
			"count":4,
			"type":"VEC3"
		},
		{
			"bufferView":2,
			"componentType":5126,
			"count":4,
			"type":"VEC2"
		},
		{
			"bufferView":3,
			"componentType":5126,
			"count":4,
			"type":"VEC2"
		},
		{
			"bufferView":4,
			"componentType":5123,
			"count":6,
			"type":"SCALAR"
		},
		{
			"bufferView":5,
			"componentType":5126,
			"count":38005,
			"max":[
				18.563962936401367,
				19.27892303466797,
				19.616445541381836
			],
			"min":[
				-19.86073112487793,
				-15.365739822387695,
				-17.261905670166016
			],
			"type":"VEC3"
		},
		{
			"bufferView":6,
			"componentType":5126,
			"count":38005,
			"type":"VEC3"
		},
		{
			"bufferView":7,
			"componentType":5126,
			"count":38005,
			"type":"VEC2"
		},
		{
			"bufferView":8,
			"componentType":5121,
			"count":38005,
			"normalized":true,
			"type":"VEC4"
		},
		{
			"bufferView":9,
			"componentType":5123,
			"count":38005,
			"normalized":true,
			"type":"VEC4"
		},
		{
			"bufferView":10,
			"componentType":5123,
			"count":41178,
			"type":"SCALAR"
		},
		{
			"bufferView":11,
			"componentType":5126,
			"count":439,
			"max":[
				20.045886993408203,
				21.399011611938477,
				9.69589614868164
			],
			"min":[
				-19.324373245239258,
				-30.362770080566406,
				-24.445661544799805
			],
			"type":"VEC3"
		},
		{
			"bufferView":12,
			"componentType":5126,
			"count":439,
			"type":"VEC3"
		},
		{
			"bufferView":13,
			"componentType":5126,
			"count":439,
			"type":"VEC2"
		},
		{
			"bufferView":14,
			"componentType":5121,
			"count":439,
			"normalized":true,
			"type":"VEC4"
		},
		{
			"bufferView":15,
			"componentType":5123,
			"count":439,
			"normalized":true,
			"type":"VEC4"
		},
		{
			"bufferView":16,
			"componentType":5123,
			"count":1860,
			"type":"SCALAR"
		},
		{
			"bufferView":17,
			"componentType":5126,
			"count":9457,
			"max":[
				0.8505474328994751,
				3.864600896835327,
				0.38191333413124084
			],
			"min":[
				-0.7760552167892456,
				0.8702924251556396,
				-1.3830091953277588
			],
			"type":"VEC3"
		},
		{
			"bufferView":18,
			"componentType":5126,
			"count":9457,
			"type":"VEC3"
		},
		{
			"bufferView":19,
			"componentType":5126,
			"count":9457,
			"type":"VEC2"
		},
		{
			"bufferView":20,
			"componentType":5126,
			"count":9457,
			"type":"VEC3"
		},
		{
			"bufferView":21,
			"componentType":5123,
			"count":30528,
			"type":"SCALAR"
		},
		{
			"bufferView":22,
			"componentType":5126,
			"count":7682,
			"max":[
				20.34572982788086,
				0.5079066753387451,
				0.11933660507202148
			],
			"min":[
				-1.2914085388183594,
				-0.8190852403640747,
				-14.896957397460938
			],
			"type":"VEC3"
		},
		{
			"bufferView":23,
			"componentType":5126,
			"count":7682,
			"type":"VEC3"
		},
		{
			"bufferView":24,
			"componentType":5126,
			"count":7682,
			"type":"VEC2"
		},
		{
			"bufferView":25,
			"componentType":5123,
			"count":10884,
			"type":"SCALAR"
		},
		{
			"bufferView":26,
			"componentType":5126,
			"count":180,
			"max":[
				23.172691345214844,
				1.4569129943847656,
				-14.739333152770996
			],
			"min":[
				12.520425796508789,
				-1.1009045839309692,
				-16.897083282470703
			],
			"type":"VEC3"
		},
		{
			"bufferView":27,
			"componentType":5126,
			"count":180,
			"type":"VEC3"
		},
		{
			"bufferView":28,
			"componentType":5126,
			"count":180,
			"type":"VEC2"
		},
		{
			"bufferView":29,
			"componentType":5123,
			"count":252,
			"type":"SCALAR"
		},
		{
			"bufferView":30,
			"componentType":5126,
			"count":606,
			"max":[
				22.075754165649414,
				7.081552982330322,
				-13.936548233032227
			],
			"min":[
				14.012632369995117,
				-0.7224586009979248,
				-15.865357398986816
			],
			"type":"VEC3"
		},
		{
			"bufferView":31,
			"componentType":5126,
			"count":606,
			"type":"VEC3"
		},
		{
			"bufferView":32,
			"componentType":5126,
			"count":606,
			"type":"VEC2"
		},
		{
			"bufferView":33,
			"componentType":5123,
			"count":3120,
			"type":"SCALAR"
		},
		{
			"bufferView":34,
			"componentType":5126,
			"count":1416,
			"max":[
				-5.547199249267578,
				0.045422136783599854,
				37.89314270019531
			],
			"min":[
				-65.41026306152344,
				-1.7383720874786377,
				2.834716796875
			],
			"type":"VEC3"
		},
		{
			"bufferView":35,
			"componentType":5126,
			"count":1416,
			"type":"VEC3"
		},
		{
			"bufferView":36,
			"componentType":5126,
			"count":1416,
			"type":"VEC2"
		},
		{
			"bufferView":37,
			"componentType":5123,
			"count":3120,
			"type":"SCALAR"
		},
		{
			"bufferView":38,
			"componentType":5126,
			"count":2922,
			"max":[
				-1.6281938552856445,
				0.8023051023483276,
				8.668835639953613
			],
			"min":[
				-13.341297149658203,
				-0.14079459011554718,
				-0.9042274355888367
			],
			"type":"VEC3"
		},
		{
			"bufferView":39,
			"componentType":5126,
			"count":2922,
			"type":"VEC3"
		},
		{
			"bufferView":40,
			"componentType":5126,
			"count":2922,
			"type":"VEC2"
		},
		{
			"bufferView":41,
			"componentType":5123,
			"count":4128,
			"type":"SCALAR"
		},
		{
			"bufferView":42,
			"componentType":5126,
			"count":1066,
			"max":[
				-10.99547290802002,
				6.6685028076171875,
				7.446158409118652
			],
			"min":[
				-12.807670593261719,
				-0.19222033023834229,
				-0.03776383399963379
			],
			"type":"VEC3"
		},
		{
			"bufferView":43,
			"componentType":5126,
			"count":1066,
			"type":"VEC3"
		},
		{
			"bufferView":44,
			"componentType":5126,
			"count":1066,
			"type":"VEC2"
		},
		{
			"bufferView":45,
			"componentType":5123,
			"count":5844,
			"type":"SCALAR"
		},
		{
			"bufferView":46,
			"componentType":5126,
			"count":180,
			"max":[
				-11.008691787719727,
				1.3380911350250244,
				8.802837371826172
			],
			"min":[
				-13.340755462646484,
				-0.5611345767974854,
				-0.983389139175415
			],
			"type":"VEC3"
		},
		{
			"bufferView":47,
			"componentType":5126,
			"count":180,
			"type":"VEC3"
		},
		{
			"bufferView":48,
			"componentType":5126,
			"count":180,
			"type":"VEC2"
		},
		{
			"bufferView":49,
			"componentType":5123,
			"count":252,
			"type":"SCALAR"
		},
		{
			"bufferView":50,
			"componentType":5126,
			"count":18,
			"max":[
				1.7812052965164185,
				6.188702583312988,
				1.8737070560455322
			],
			"min":[
				-0.594572901725769,
				-0.7094646692276001,
				-4.7098388671875
			],
			"type":"VEC3"
		},
		{
			"bufferView":51,
			"componentType":5126,
			"count":18,
			"type":"VEC3"
		},
		{
			"bufferView":52,
			"componentType":5126,
			"count":18,
			"type":"VEC2"
		},
		{
			"bufferView":53,
			"componentType":5123,
			"count":96,
			"type":"SCALAR"
		},
		{
			"bufferView":54,
			"componentType":5126,
			"count":328,
			"max":[
				7.5,
				0.8022460341453552,
				7.500000953674316
			],
			"min":[
				-7.500000476837158,
				-0.8022460341453552,
				-7.5
			],
			"type":"VEC3"
		},
		{
			"bufferView":55,
			"componentType":5126,
			"count":328,
			"type":"VEC3"
		},
		{
			"bufferView":56,
			"componentType":5126,
			"count":328,
			"type":"VEC2"
		},
		{
			"bufferView":57,
			"componentType":5123,
			"count":1140,
			"type":"SCALAR"
		},
		{
			"bufferView":58,
			"componentType":5126,
			"count":288,
			"max":[
				6.904775619506836,
				0.637562096118927,
				7.005484104156494
			],
			"min":[
				-6.868865013122559,
				-0.15206003189086914,
				-6.829061031341553
			],
			"type":"VEC3"
		},
		{
			"bufferView":59,
			"componentType":5126,
			"count":288,
			"type":"VEC3"
		},
		{
			"bufferView":60,
			"componentType":5126,
			"count":288,
			"type":"VEC2"
		},
		{
			"bufferView":61,
			"componentType":5123,
			"count":1626,
			"type":"SCALAR"
		},
		{
			"bufferView":62,
			"componentType":5126,
			"count":1198,
			"max":[
				10.47061824798584,
				10.123438835144043,
				8.240179061889648
			],
			"min":[
				-4.251412391662598,
				-1.0104577541351318,
				-4.49796724319458
			],
			"type":"VEC3"
		},
		{
			"bufferView":63,
			"componentType":5126,
			"count":1198,
			"type":"VEC3"
		},
		{
			"bufferView":64,
			"componentType":5126,
			"count":1198,
			"type":"VEC2"
		},
		{
			"bufferView":65,
			"componentType":5123,
			"count":5790,
			"type":"SCALAR"
		},
		{
			"bufferView":66,
			"componentType":5126,
			"count":88000,
			"max":[
				6.776188850402832,
				5.495737075805664,
				8.334627151489258
			],
			"min":[
				-13.188682556152344,
				-7.181613445281982,
				-5.612287521362305
			],
			"type":"VEC3"
		},
		{
			"bufferView":67,
			"componentType":5126,
			"count":88000,
			"type":"VEC3"
		},
		{
			"bufferView":68,
			"componentType":5126,
			"count":88000,
			"type":"VEC2"
		},
		{
			"bufferView":69,
			"componentType":5125,
			"count":133500,
			"type":"SCALAR"
		},
		{
			"bufferView":70,
			"componentType":5126,
			"count":104000,
			"max":[
				6.145646572113037,
				4.84940767288208,
				7.846790790557861
			],
			"min":[
				-12.078766822814941,
				-6.490156173706055,
				-4.444028854370117
			],
			"type":"VEC3"
		},
		{
			"bufferView":71,
			"componentType":5126,
			"count":104000,
			"type":"VEC3"
		},
		{
			"bufferView":72,
			"componentType":5126,
			"count":104000,
			"type":"VEC2"
		},
		{
			"bufferView":73,
			"componentType":5125,
			"count":180000,
			"type":"SCALAR"
		},
		{
			"bufferView":74,
			"componentType":5126,
			"count":208000,
			"max":[
				6.360531806945801,
				4.830612659454346,
				7.820249557495117
			],
			"min":[
				-12.973661422729492,
				-6.161206245422363,
				-5.354850769042969
			],
			"type":"VEC3"
		},
		{
			"bufferView":75,
			"componentType":5126,
			"count":208000,
			"type":"VEC3"
		},
		{
			"bufferView":76,
			"componentType":5126,
			"count":208000,
			"type":"VEC2"
		},
		{
			"bufferView":77,
			"componentType":5125,
			"count":360000,
			"type":"SCALAR"
		},
		{
			"bufferView":78,
			"componentType":5126,
			"count":26000,
			"max":[
				5.947772979736328,
				4.116639137268066,
				7.069159030914307
			],
			"min":[
				-12.375283241271973,
				-5.505617141723633,
				-4.744497776031494
			],
			"type":"VEC3"
		},
		{
			"bufferView":79,
			"componentType":5126,
			"count":26000,
			"type":"VEC3"
		},
		{
			"bufferView":80,
			"componentType":5126,
			"count":26000,
			"type":"VEC2"
		},
		{
			"bufferView":81,
			"componentType":5123,
			"count":45000,
			"type":"SCALAR"
		},
		{
			"bufferView":82,
			"componentType":5126,
			"count":1344,
			"max":[
				7.655266761779785,
				0.49499714374542236,
				7.655259609222412
			],
			"min":[
				-7.655261516571045,
				-1.099665641784668,
				-7.655264377593994
			],
			"type":"VEC3"
		},
		{
			"bufferView":83,
			"componentType":5126,
			"count":1344,
			"type":"VEC3"
		},
		{
			"bufferView":84,
			"componentType":5126,
			"count":1344,
			"type":"VEC2"
		},
		{
			"bufferView":85,
			"componentType":5123,
			"count":3648,
			"type":"SCALAR"
		},
		{
			"bufferView":86,
			"componentType":5126,
			"count":352,
			"max":[
				7.583211421966553,
				0.2107257843017578,
				7.583211898803711
			],
			"min":[
				-7.5832109451293945,
				-1.6885337829589844,
				-7.5832109451293945
			],
			"type":"VEC3"
		},
		{
			"bufferView":87,
			"componentType":5126,
			"count":352,
			"type":"VEC3"
		},
		{
			"bufferView":88,
			"componentType":5126,
			"count":352,
			"type":"VEC2"
		},
		{
			"bufferView":89,
			"componentType":5121,
			"count":352,
			"normalized":true,
			"type":"VEC4"
		},
		{
			"bufferView":90,
			"componentType":5123,
			"count":352,
			"normalized":true,
			"type":"VEC4"
		},
		{
			"bufferView":91,
			"componentType":5123,
			"count":666,
			"type":"SCALAR"
		},
		{
			"bufferView":92,
			"componentType":5126,
			"count":4,
			"max":[
				0.5,
				0,
				0.5
			],
			"min":[
				-0.5,
				0,
				-0.5
			],
			"type":"VEC3"
		},
		{
			"bufferView":93,
			"componentType":5126,
			"count":4,
			"type":"VEC3"
		},
		{
			"bufferView":94,
			"componentType":5126,
			"count":4,
			"type":"VEC2"
		},
		{
			"bufferView":95,
			"componentType":5126,
			"count":99,
			"max":[
				0.9172195792198181,
				1.027471661567688,
				8.093717575073242
			],
			"min":[
				0.010865733027458191,
				0.11398213356733322,
				6.896359920501709
			],
			"type":"VEC3"
		},
		{
			"bufferView":96,
			"componentType":5126,
			"count":99,
			"type":"VEC3"
		},
		{
			"bufferView":97,
			"componentType":5126,
			"count":99,
			"type":"VEC2"
		},
		{
			"bufferView":98,
			"componentType":5123,
			"count":480,
			"type":"SCALAR"
		},
		{
			"bufferView":99,
			"componentType":5126,
			"count":104,
			"max":[
				0.2208460569381714,
				0.09217614680528641,
				0.2567239999771118
			],
			"min":[
				-0.2235027700662613,
				-0.027070725336670876,
				-0.204528346657753
			],
			"type":"VEC3"
		},
		{
			"bufferView":100,
			"componentType":5126,
			"count":104,
			"type":"VEC3"
		},
		{
			"bufferView":101,
			"componentType":5126,
			"count":104,
			"type":"VEC2"
		},
		{
			"bufferView":102,
			"componentType":5123,
			"count":180,
			"type":"SCALAR"
		},
		{
			"bufferView":103,
			"componentType":5126,
			"count":52,
			"max":[
				0.2154335230588913,
				0.08848781883716583,
				0.21970978379249573
			],
			"min":[
				-0.21495023369789124,
				-0.0016640662215650082,
				-0.21555019915103912
			],
			"type":"VEC3"
		},
		{
			"bufferView":104,
			"componentType":5126,
			"count":52,
			"type":"VEC3"
		},
		{
			"bufferView":105,
			"componentType":5126,
			"count":52,
			"type":"VEC2"
		},
		{
			"bufferView":106,
			"componentType":5123,
			"count":90,
			"type":"SCALAR"
		},
		{
			"bufferView":107,
			"componentType":5126,
			"count":52,
			"max":[
				0.23125886917114258,
				0.12489240616559982,
				0.2474297285079956
			],
			"min":[
				-0.20307058095932007,
				-0.016185618937015533,
				-0.176106795668602
			],
			"type":"VEC3"
		},
		{
			"bufferView":108,
			"componentType":5126,
			"count":52,
			"type":"VEC3"
		},
		{
			"bufferView":109,
			"componentType":5126,
			"count":52,
			"type":"VEC2"
		},
		{
			"bufferView":110,
			"componentType":5123,
			"count":90,
			"type":"SCALAR"
		},
		{
			"bufferView":111,
			"componentType":5126,
			"count":12,
			"max":[
				-0.42942264676094055,
				1.640964150428772,
				1.544865369796753
			],
			"min":[
				-1.3268837928771973,
				0.5159465670585632,
				-0.05101858824491501
			],
			"type":"VEC3"
		},
		{
			"bufferView":112,
			"componentType":5126,
			"count":12,
			"type":"VEC3"
		},
		{
			"bufferView":113,
			"componentType":5126,
			"count":12,
			"type":"VEC2"
		},
		{
			"bufferView":114,
			"componentType":5126,
			"count":12,
			"type":"VEC2"
		},
		{
			"bufferView":115,
			"componentType":5123,
			"count":18,
			"type":"SCALAR"
		},
		{
			"bufferView":116,
			"componentType":5126,
			"count":1768,
			"max":[
				2.2490155696868896,
				1.8305498361587524,
				1.6198395490646362
			],
			"min":[
				-1.4786127805709839,
				-1.499753713607788,
				-1.3665510416030884
			],
			"type":"VEC3"
		},
		{
			"bufferView":117,
			"componentType":5126,
			"count":1768,
			"type":"VEC3"
		},
		{
			"bufferView":118,
			"componentType":5126,
			"count":1768,
			"type":"VEC2"
		},
		{
			"bufferView":119,
			"componentType":5126,
			"count":1768,
			"type":"VEC2"
		},
		{
			"bufferView":120,
			"componentType":5123,
			"count":3060,
			"type":"SCALAR"
		},
		{
			"bufferView":121,
			"componentType":5126,
			"count":164,
			"max":[
				0.3163812756538391,
				0.10023000836372375,
				0.04691135883331299
			],
			"min":[
				-0.498151957988739,
				-0.5437891483306885,
				-1.6227136850357056
			],
			"type":"VEC3"
		},
		{
			"bufferView":122,
			"componentType":5126,
			"count":164,
			"type":"VEC3"
		},
		{
			"bufferView":123,
			"componentType":5126,
			"count":164,
			"type":"VEC2"
		},
		{
			"bufferView":124,
			"componentType":5123,
			"count":252,
			"type":"SCALAR"
		},
		{
			"bufferView":125,
			"componentType":5126,
			"count":572,
			"max":[
				0.15956124663352966,
				0.07586642354726791,
				-0.5116156339645386
			],
			"min":[
				-0.43149420619010925,
				-0.5085552334785461,
				-1.6614844799041748
			],
			"type":"VEC3"
		},
		{
			"bufferView":126,
			"componentType":5126,
			"count":572,
			"type":"VEC3"
		},
		{
			"bufferView":127,
			"componentType":5126,
			"count":572,
			"type":"VEC2"
		},
		{
			"bufferView":128,
			"componentType":5123,
			"count":990,
			"type":"SCALAR"
		},
		{
			"bufferView":129,
			"componentType":5126,
			"count":280,
			"max":[
				1.134375810623169,
				0.186104416847229,
				0.19737529754638672
			],
			"min":[
				-4.114316940307617,
				-3.494089126586914,
				-4.775752544403076
			],
			"type":"VEC3"
		},
		{
			"bufferView":130,
			"componentType":5126,
			"count":280,
			"type":"VEC3"
		},
		{
			"bufferView":131,
			"componentType":5126,
			"count":280,
			"type":"VEC2"
		},
		{
			"bufferView":132,
			"componentType":5123,
			"count":426,
			"type":"SCALAR"
		},
		{
			"bufferView":133,
			"componentType":5126,
			"count":1040,
			"max":[
				1.0946221351623535,
				0.1768897920846939,
				-0.45583271980285645
			],
			"min":[
				-3.514153003692627,
				-3.0268778800964355,
				-4.591455936431885
			],
			"type":"VEC3"
		},
		{
			"bufferView":134,
			"componentType":5126,
			"count":1040,
			"type":"VEC3"
		},
		{
			"bufferView":135,
			"componentType":5126,
			"count":1040,
			"type":"VEC2"
		},
		{
			"bufferView":136,
			"componentType":5123,
			"count":1800,
			"type":"SCALAR"
		},
		{
			"bufferView":137,
			"componentType":5126,
			"count":113,
			"max":[
				0.03760787844657898,
				1.0198884010314941,
				0.21968317031860352
			],
			"min":[
				-0.03760771453380585,
				-1,
				-0.21968460083007812
			],
			"type":"VEC3"
		},
		{
			"bufferView":138,
			"componentType":5126,
			"count":113,
			"type":"VEC3"
		},
		{
			"bufferView":139,
			"componentType":5126,
			"count":113,
			"type":"VEC2"
		},
		{
			"bufferView":140,
			"componentType":5123,
			"count":204,
			"type":"SCALAR"
		}
	],
	"bufferViews":[
		{
			"buffer":0,
			"byteLength":48,
			"byteOffset":0,
			"target":34962
		},
		{
			"buffer":0,
			"byteLength":48,
			"byteOffset":48,
			"target":34962
		},
		{
			"buffer":0,
			"byteLength":32,
			"byteOffset":96,
			"target":34962
		},
		{
			"buffer":0,
			"byteLength":32,
			"byteOffset":128,
			"target":34962
		},
		{
			"buffer":0,
			"byteLength":12,
			"byteOffset":160,
			"target":34963
		},
		{
			"buffer":0,
			"byteLength":456060,
			"byteOffset":172,
			"target":34962
		},
		{
			"buffer":0,
			"byteLength":456060,
			"byteOffset":456232,
			"target":34962
		},
		{
			"buffer":0,
			"byteLength":304040,
			"byteOffset":912292,
			"target":34962
		},
		{
			"buffer":0,
			"byteLength":152020,
			"byteOffset":1216332,
			"target":34962
		},
		{
			"buffer":0,
			"byteLength":304040,
			"byteOffset":1368352,
			"target":34962
		},
		{
			"buffer":0,
			"byteLength":82356,
			"byteOffset":1672392,
			"target":34963
		},
		{
			"buffer":0,
			"byteLength":5268,
			"byteOffset":1754748,
			"target":34962
		},
		{
			"buffer":0,
			"byteLength":5268,
			"byteOffset":1760016,
			"target":34962
		},
		{
			"buffer":0,
			"byteLength":3512,
			"byteOffset":1765284,
			"target":34962
		},
		{
			"buffer":0,
			"byteLength":1756,
			"byteOffset":1768796,
			"target":34962
		},
		{
			"buffer":0,
			"byteLength":3512,
			"byteOffset":1770552,
			"target":34962
		},
		{
			"buffer":0,
			"byteLength":3720,
			"byteOffset":1774064,
			"target":34963
		},
		{
			"buffer":0,
			"byteLength":113484,
			"byteOffset":1777784,
			"target":34962
		},
		{
			"buffer":0,
			"byteLength":113484,
			"byteOffset":1891268,
			"target":34962
		},
		{
			"buffer":0,
			"byteLength":75656,
			"byteOffset":2004752,
			"target":34962
		},
		{
			"buffer":0,
			"byteLength":113484,
			"byteOffset":2080408,
			"target":34962
		},
		{
			"buffer":0,
			"byteLength":61056,
			"byteOffset":2193892,
			"target":34963
		},
		{
			"buffer":0,
			"byteLength":92184,
			"byteOffset":2254948,
			"target":34962
		},
		{
			"buffer":0,
			"byteLength":92184,
			"byteOffset":2347132,
			"target":34962
		},
		{
			"buffer":0,
			"byteLength":61456,
			"byteOffset":2439316,
			"target":34962
		},
		{
			"buffer":0,
			"byteLength":21768,
			"byteOffset":2500772,
			"target":34963
		},
		{
			"buffer":0,
			"byteLength":2160,
			"byteOffset":2522540,
			"target":34962
		},
		{
			"buffer":0,
			"byteLength":2160,
			"byteOffset":2524700,
			"target":34962
		},
		{
			"buffer":0,
			"byteLength":1440,
			"byteOffset":2526860,
			"target":34962
		},
		{
			"buffer":0,
			"byteLength":504,
			"byteOffset":2528300,
			"target":34963
		},
		{
			"buffer":0,
			"byteLength":7272,
			"byteOffset":2528804,
			"target":34962
		},
		{
			"buffer":0,
			"byteLength":7272,
			"byteOffset":2536076,
			"target":34962
		},
		{
			"buffer":0,
			"byteLength":4848,
			"byteOffset":2543348,
			"target":34962
		},
		{
			"buffer":0,
			"byteLength":6240,
			"byteOffset":2548196,
			"target":34963
		},
		{
			"buffer":0,
			"byteLength":16992,
			"byteOffset":2554436,
			"target":34962
		},
		{
			"buffer":0,
			"byteLength":16992,
			"byteOffset":2571428,
			"target":34962
		},
		{
			"buffer":0,
			"byteLength":11328,
			"byteOffset":2588420,
			"target":34962
		},
		{
			"buffer":0,
			"byteLength":6240,
			"byteOffset":2599748,
			"target":34963
		},
		{
			"buffer":0,
			"byteLength":35064,
			"byteOffset":2605988,
			"target":34962
		},
		{
			"buffer":0,
			"byteLength":35064,
			"byteOffset":2641052,
			"target":34962
		},
		{
			"buffer":0,
			"byteLength":23376,
			"byteOffset":2676116,
			"target":34962
		},
		{
			"buffer":0,
			"byteLength":8256,
			"byteOffset":2699492,
			"target":34963
		},
		{
			"buffer":0,
			"byteLength":12792,
			"byteOffset":2707748,
			"target":34962
		},
		{
			"buffer":0,
			"byteLength":12792,
			"byteOffset":2720540,
			"target":34962
		},
		{
			"buffer":0,
			"byteLength":8528,
			"byteOffset":2733332,
			"target":34962
		},
		{
			"buffer":0,
			"byteLength":11688,
			"byteOffset":2741860,
			"target":34963
		},
		{
			"buffer":0,
			"byteLength":2160,
			"byteOffset":2753548,
			"target":34962
		},
		{
			"buffer":0,
			"byteLength":2160,
			"byteOffset":2755708,
			"target":34962
		},
		{
			"buffer":0,
			"byteLength":1440,
			"byteOffset":2757868,
			"target":34962
		},
		{
			"buffer":0,
			"byteLength":504,
			"byteOffset":2759308,
			"target":34963
		},
		{
			"buffer":0,
			"byteLength":216,
			"byteOffset":2759812,
			"target":34962
		},
		{
			"buffer":0,
			"byteLength":216,
			"byteOffset":2760028,
			"target":34962
		},
		{
			"buffer":0,
			"byteLength":144,
			"byteOffset":2760244,
			"target":34962
		},
		{
			"buffer":0,
			"byteLength":192,
			"byteOffset":2760388,
			"target":34963
		},
		{
			"buffer":0,
			"byteLength":3936,
			"byteOffset":2760580,
			"target":34962
		},
		{
			"buffer":0,
			"byteLength":3936,
			"byteOffset":2764516,
			"target":34962
		},
		{
			"buffer":0,
			"byteLength":2624,
			"byteOffset":2768452,
			"target":34962
		},
		{
			"buffer":0,
			"byteLength":2280,
			"byteOffset":2771076,
			"target":34963
		},
		{
			"buffer":0,
			"byteLength":3456,
			"byteOffset":2773356,
			"target":34962
		},
		{
			"buffer":0,
			"byteLength":3456,
			"byteOffset":2776812,
			"target":34962
		},
		{
			"buffer":0,
			"byteLength":2304,
			"byteOffset":2780268,
			"target":34962
		},
		{
			"buffer":0,
			"byteLength":3252,
			"byteOffset":2782572,
			"target":34963
		},
		{
			"buffer":0,
			"byteLength":14376,
			"byteOffset":2785824,
			"target":34962
		},
		{
			"buffer":0,
			"byteLength":14376,
			"byteOffset":2800200,
			"target":34962
		},
		{
			"buffer":0,
			"byteLength":9584,
			"byteOffset":2814576,
			"target":34962
		},
		{
			"buffer":0,
			"byteLength":11580,
			"byteOffset":2824160,
			"target":34963
		},
		{
			"buffer":0,
			"byteLength":1056000,
			"byteOffset":2835740,
			"target":34962
		},
		{
			"buffer":0,
			"byteLength":1056000,
			"byteOffset":3891740,
			"target":34962
		},
		{
			"buffer":0,
			"byteLength":704000,
			"byteOffset":4947740,
			"target":34962
		},
		{
			"buffer":0,
			"byteLength":534000,
			"byteOffset":5651740,
			"target":34963
		},
		{
			"buffer":0,
			"byteLength":1248000,
			"byteOffset":6185740,
			"target":34962
		},
		{
			"buffer":0,
			"byteLength":1248000,
			"byteOffset":7433740,
			"target":34962
		},
		{
			"buffer":0,
			"byteLength":832000,
			"byteOffset":8681740,
			"target":34962
		},
		{
			"buffer":0,
			"byteLength":720000,
			"byteOffset":9513740,
			"target":34963
		},
		{
			"buffer":0,
			"byteLength":2496000,
			"byteOffset":10233740,
			"target":34962
		},
		{
			"buffer":0,
			"byteLength":2496000,
			"byteOffset":12729740,
			"target":34962
		},
		{
			"buffer":0,
			"byteLength":1664000,
			"byteOffset":15225740,
			"target":34962
		},
		{
			"buffer":0,
			"byteLength":1440000,
			"byteOffset":16889740,
			"target":34963
		},
		{
			"buffer":0,
			"byteLength":312000,
			"byteOffset":18329740,
			"target":34962
		},
		{
			"buffer":0,
			"byteLength":312000,
			"byteOffset":18641740,
			"target":34962
		},
		{
			"buffer":0,
			"byteLength":208000,
			"byteOffset":18953740,
			"target":34962
		},
		{
			"buffer":0,
			"byteLength":90000,
			"byteOffset":19161740,
			"target":34963
		},
		{
			"buffer":0,
			"byteLength":16128,
			"byteOffset":19251740,
			"target":34962
		},
		{
			"buffer":0,
			"byteLength":16128,
			"byteOffset":19267868,
			"target":34962
		},
		{
			"buffer":0,
			"byteLength":10752,
			"byteOffset":19283996,
			"target":34962
		},
		{
			"buffer":0,
			"byteLength":7296,
			"byteOffset":19294748,
			"target":34963
		},
		{
			"buffer":0,
			"byteLength":4224,
			"byteOffset":19302044,
			"target":34962
		},
		{
			"buffer":0,
			"byteLength":4224,
			"byteOffset":19306268,
			"target":34962
		},
		{
			"buffer":0,
			"byteLength":2816,
			"byteOffset":19310492,
			"target":34962
		},
		{
			"buffer":0,
			"byteLength":1408,
			"byteOffset":19313308,
			"target":34962
		},
		{
			"buffer":0,
			"byteLength":2816,
			"byteOffset":19314716,
			"target":34962
		},
		{
			"buffer":0,
			"byteLength":1332,
			"byteOffset":19317532,
			"target":34963
		},
		{
			"buffer":0,
			"byteLength":48,
			"byteOffset":19318864,
			"target":34962
		},
		{
			"buffer":0,
			"byteLength":48,
			"byteOffset":19318912,
			"target":34962
		},
		{
			"buffer":0,
			"byteLength":32,
			"byteOffset":19318960,
			"target":34962
		},
		{
			"buffer":0,
			"byteLength":1188,
			"byteOffset":19318992,
			"target":34962
		},
		{
			"buffer":0,
			"byteLength":1188,
			"byteOffset":19320180,
			"target":34962
		},
		{
			"buffer":0,
			"byteLength":792,
			"byteOffset":19321368,
			"target":34962
		},
		{
			"buffer":0,
			"byteLength":960,
			"byteOffset":19322160,
			"target":34963
		},
		{
			"buffer":0,
			"byteLength":1248,
			"byteOffset":19323120,
			"target":34962
		},
		{
			"buffer":0,
			"byteLength":1248,
			"byteOffset":19324368,
			"target":34962
		},
		{
			"buffer":0,
			"byteLength":832,
			"byteOffset":19325616,
			"target":34962
		},
		{
			"buffer":0,
			"byteLength":360,
			"byteOffset":19326448,
			"target":34963
		},
		{
			"buffer":0,
			"byteLength":624,
			"byteOffset":19326808,
			"target":34962
		},
		{
			"buffer":0,
			"byteLength":624,
			"byteOffset":19327432,
			"target":34962
		},
		{
			"buffer":0,
			"byteLength":416,
			"byteOffset":19328056,
			"target":34962
		},
		{
			"buffer":0,
			"byteLength":180,
			"byteOffset":19328472,
			"target":34963
		},
		{
			"buffer":0,
			"byteLength":624,
			"byteOffset":19328652,
			"target":34962
		},
		{
			"buffer":0,
			"byteLength":624,
			"byteOffset":19329276,
			"target":34962
		},
		{
			"buffer":0,
			"byteLength":416,
			"byteOffset":19329900,
			"target":34962
		},
		{
			"buffer":0,
			"byteLength":180,
			"byteOffset":19330316,
			"target":34963
		},
		{
			"buffer":0,
			"byteLength":144,
			"byteOffset":19330496,
			"target":34962
		},
		{
			"buffer":0,
			"byteLength":144,
			"byteOffset":19330640,
			"target":34962
		},
		{
			"buffer":0,
			"byteLength":96,
			"byteOffset":19330784,
			"target":34962
		},
		{
			"buffer":0,
			"byteLength":96,
			"byteOffset":19330880,
			"target":34962
		},
		{
			"buffer":0,
			"byteLength":36,
			"byteOffset":19330976,
			"target":34963
		},
		{
			"buffer":0,
			"byteLength":21216,
			"byteOffset":19331012,
			"target":34962
		},
		{
			"buffer":0,
			"byteLength":21216,
			"byteOffset":19352228,
			"target":34962
		},
		{
			"buffer":0,
			"byteLength":14144,
			"byteOffset":19373444,
			"target":34962
		},
		{
			"buffer":0,
			"byteLength":14144,
			"byteOffset":19387588,
			"target":34962
		},
		{
			"buffer":0,
			"byteLength":6120,
			"byteOffset":19401732,
			"target":34963
		},
		{
			"buffer":0,
			"byteLength":1968,
			"byteOffset":19407852,
			"target":34962
		},
		{
			"buffer":0,
			"byteLength":1968,
			"byteOffset":19409820,
			"target":34962
		},
		{
			"buffer":0,
			"byteLength":1312,
			"byteOffset":19411788,
			"target":34962
		},
		{
			"buffer":0,
			"byteLength":504,
			"byteOffset":19413100,
			"target":34963
		},
		{
			"buffer":0,
			"byteLength":6864,
			"byteOffset":19413604,
			"target":34962
		},
		{
			"buffer":0,
			"byteLength":6864,
			"byteOffset":19420468,
			"target":34962
		},
		{
			"buffer":0,
			"byteLength":4576,
			"byteOffset":19427332,
			"target":34962
		},
		{
			"buffer":0,
			"byteLength":1980,
			"byteOffset":19431908,
			"target":34963
		},
		{
			"buffer":0,
			"byteLength":3360,
			"byteOffset":19433888,
			"target":34962
		},
		{
			"buffer":0,
			"byteLength":3360,
			"byteOffset":19437248,
			"target":34962
		},
		{
			"buffer":0,
			"byteLength":2240,
			"byteOffset":19440608,
			"target":34962
		},
		{
			"buffer":0,
			"byteLength":852,
			"byteOffset":19442848,
			"target":34963
		},
		{
			"buffer":0,
			"byteLength":12480,
			"byteOffset":19443700,
			"target":34962
		},
		{
			"buffer":0,
			"byteLength":12480,
			"byteOffset":19456180,
			"target":34962
		},
		{
			"buffer":0,
			"byteLength":8320,
			"byteOffset":19468660,
			"target":34962
		},
		{
			"buffer":0,
			"byteLength":3600,
			"byteOffset":19476980,
			"target":34963
		},
		{
			"buffer":0,
			"byteLength":1356,
			"byteOffset":19480580,
			"target":34962
		},
		{
			"buffer":0,
			"byteLength":1356,
			"byteOffset":19481936,
			"target":34962
		},
		{
			"buffer":0,
			"byteLength":904,
			"byteOffset":19483292,
			"target":34962
		},
		{
			"buffer":0,
			"byteLength":408,
			"byteOffset":19484196,
			"target":34963
		}
	],
	"samplers":[
		{
			"magFilter":9729,
			"minFilter":9987
		},
		{
			"magFilter":9729,
			"minFilter":9987,
			"wrapS":33071,
			"wrapT":33071
		}
	],
	"buffers":[
		{
			"byteLength":19484604,
			"uri":"Level1_Part1.bin"
		}
	]
}
